<svg width="155" height="109" viewBox="0 0 155 109" fill="none" xmlns="http://www.w3.org/2000/svg">
<g id="Combined Shape">
<path id="Combined Shape_2" d="M112.728 103.506V75.182C112.728 74.4481 112.907 73.7252 113.25 73.0765C113.593 72.4277 114.09 71.8728 114.697 71.46L123.697 65.344H89.045C87.8515 65.344 86.7069 64.8699 85.863 64.026C85.0191 63.1821 84.545 62.0375 84.545 60.844V4.5C84.545 3.30653 85.0191 2.16193 85.863 1.31802C86.7069 0.474106 87.8515 0 89.045 0L150.5 0C151.693 0 152.838 0.474106 153.682 1.31802C154.526 2.16193 155 3.30653 155 4.5V80.883C155 81.6168 154.821 82.3394 154.477 82.988C154.134 83.6365 153.638 84.1913 153.031 84.604L119.758 107.226C119.018 107.736 118.14 108.01 117.241 108.012C116.648 108.014 116.061 107.898 115.514 107.673C114.966 107.447 114.468 107.115 114.048 106.696C113.629 106.278 113.297 105.78 113.07 105.233C112.843 104.685 112.727 104.099 112.728 103.506ZM28.182 103.506V75.182C28.1819 74.448 28.3614 73.7251 28.7047 73.0763C29.0481 72.4276 29.545 71.8727 30.152 71.46L39.152 65.344H4.5C3.30653 65.344 2.16193 64.8699 1.31802 64.026C0.474106 63.1821 0 62.0375 0 60.844L0 4.5C0 3.30653 0.474106 2.16193 1.31802 1.31802C2.16193 0.474106 3.30653 0 4.5 0L65.955 0C67.1485 0 68.2931 0.474106 69.137 1.31802C69.9809 2.16193 70.455 3.30653 70.455 4.5V80.883C70.4549 81.6169 70.2754 82.3395 69.932 82.9881C69.5887 83.6367 69.0919 84.1914 68.485 84.604L35.212 107.227C34.4718 107.737 33.5942 108.011 32.695 108.013C32.1024 108.015 31.5152 107.899 30.9673 107.674C30.4194 107.448 29.9215 107.116 29.5021 106.697C29.0828 106.278 28.7503 105.781 28.5238 105.233C28.2972 104.686 28.1811 104.099 28.182 103.506Z" fill="#66BB6A" fill-opacity="0.25"/>
</g>
</svg>
