<svg width="684" height="142" viewBox="0 0 684 142" fill="none" xmlns="http://www.w3.org/2000/svg">
<path d="M209.328 15.9618H1V125.859H209.328V15.9618Z" fill="white"/>
<path d="M209.089 16.2007H1.23877V125.62H209.089V16.2007Z" stroke="#00BD6A"/>
<path d="M474.993 1H209.328V141H474.993V1Z" fill="white"/>
<path d="M474.754 1.23889H209.566V140.761H474.754V1.23889Z" stroke="#00BD6A"/>
<path d="M683.321 15.8124H474.993V125.71H683.321V15.8124Z" fill="white"/>
<path d="M683.354 15.9618H475.504V125.382H683.354V15.9618Z" stroke="#00BD6A"/>
<path d="M47.5049 49.7768L52.6649 58.6568L57.8729 49.7768H60.2249L53.7449 60.6008V66.8168H51.5849V60.5528L45.1289 49.7768H47.5049ZM65.5398 67.0568C64.5958 67.0568 63.7398 66.8888 62.9718 66.5528C62.2038 66.2008 61.5398 65.7288 60.9798 65.1368C60.4198 64.5288 59.9878 63.8328 59.6838 63.0488C59.3798 62.2648 59.2278 61.4408 59.2278 60.5768C59.2278 59.6968 59.3798 58.8648 59.6838 58.0808C59.9878 57.2968 60.4198 56.6088 60.9798 56.0168C61.5398 55.4088 62.2038 54.9368 62.9718 54.6008C63.7558 54.2488 64.6198 54.0728 65.5638 54.0728C66.4918 54.0728 67.3398 54.2488 68.1078 54.6008C68.8758 54.9368 69.5398 55.4088 70.0998 56.0168C70.6758 56.6088 71.1158 57.2968 71.4198 58.0808C71.7238 58.8648 71.8758 59.6968 71.8758 60.5768C71.8758 61.4408 71.7238 62.2648 71.4198 63.0488C71.1158 63.8328 70.6838 64.5288 70.1238 65.1368C69.5638 65.7288 68.8918 66.2008 68.1078 66.5528C67.3398 66.8888 66.4838 67.0568 65.5398 67.0568ZM61.3878 60.6008C61.3878 61.4648 61.5718 62.2488 61.9398 62.9528C62.3238 63.6568 62.8278 64.2168 63.4518 64.6328C64.0758 65.0328 64.7718 65.2328 65.5398 65.2328C66.3078 65.2328 67.0038 65.0248 67.6278 64.6088C68.2678 64.1928 68.7718 63.6328 69.1398 62.9288C69.5238 62.2088 69.7158 61.4168 69.7158 60.5528C69.7158 59.6888 69.5238 58.9048 69.1398 58.2008C68.7718 57.4968 68.2678 56.9368 67.6278 56.5208C67.0038 56.1048 66.3078 55.8968 65.5398 55.8968C64.7718 55.8968 64.0758 56.1128 63.4518 56.5448C62.8278 56.9608 62.3238 57.5208 61.9398 58.2248C61.5718 58.9288 61.3878 59.7208 61.3878 60.6008ZM74.315 61.8008V54.2888H76.427V61.3928C76.427 62.6728 76.651 63.6328 77.099 64.2728C77.547 64.9128 78.211 65.2328 79.091 65.2328C79.667 65.2328 80.219 65.1128 80.747 64.8728C81.291 64.6168 81.779 64.2568 82.211 63.7928C82.643 63.3288 82.979 62.7768 83.219 62.1368V54.2888H85.331V64.4168C85.331 64.6728 85.379 64.8648 85.475 64.9928C85.587 65.1048 85.763 65.1688 86.003 65.1848V66.8168C85.763 66.8488 85.571 66.8648 85.427 66.8648C85.299 66.8808 85.171 66.8888 85.043 66.8888C84.643 66.8888 84.299 66.7688 84.011 66.5288C83.723 66.2728 83.571 65.9608 83.555 65.5928L83.507 64.1288C82.963 65.0568 82.227 65.7768 81.299 66.2888C80.387 66.8008 79.387 67.0568 78.299 67.0568C76.987 67.0568 75.995 66.6168 75.323 65.7368C74.651 64.8408 74.315 63.5288 74.315 61.8008Z" fill="#00BD6A"/>
<path d="M46.5929 94.8168V77.7768H49.9049V94.8168H46.5929ZM64.8361 94.8168H61.6201V87.7608C61.6201 86.7528 61.4441 86.0168 61.0921 85.5528C60.7401 85.0888 60.2521 84.8568 59.6281 84.8568C59.1961 84.8568 58.7561 84.9688 58.3081 85.1928C57.8761 85.4168 57.4841 85.7288 57.1321 86.1288C56.7801 86.5128 56.5241 86.9608 56.3641 87.4728V94.8168H53.1481V82.2408H56.0521V84.5688C56.3721 84.0248 56.7801 83.5688 57.2761 83.2008C57.7721 82.8168 58.3401 82.5288 58.9801 82.3368C59.6361 82.1288 60.3241 82.0248 61.0441 82.0248C61.8281 82.0248 62.4681 82.1688 62.9641 82.4568C63.4761 82.7288 63.8601 83.1048 64.1161 83.5848C64.3881 84.0488 64.5721 84.5768 64.6681 85.1688C64.7801 85.7608 64.8361 86.3608 64.8361 86.9688V94.8168ZM70.8055 94.8168L66.1735 82.2408H69.5095L72.6775 91.8888L75.8695 82.2408H78.9175L74.3095 94.8168H70.8055ZM86.027 95.0568C85.019 95.0568 84.107 94.8888 83.291 94.5528C82.475 94.2008 81.779 93.7288 81.203 93.1368C80.627 92.5288 80.179 91.8408 79.859 91.0728C79.555 90.2888 79.403 89.4648 79.403 88.6008C79.403 87.4008 79.667 86.3048 80.195 85.3128C80.739 84.3208 81.507 83.5288 82.499 82.9368C83.507 82.3288 84.691 82.0248 86.051 82.0248C87.427 82.0248 88.603 82.3288 89.579 82.9368C90.555 83.5288 91.299 84.3208 91.811 85.3128C92.339 86.2888 92.603 87.3448 92.603 88.4808C92.603 88.6728 92.595 88.8728 92.579 89.0808C92.563 89.2728 92.547 89.4328 92.531 89.5608H82.811C82.875 90.2008 83.059 90.7608 83.363 91.2408C83.683 91.7208 84.083 92.0888 84.563 92.3448C85.059 92.5848 85.587 92.7048 86.147 92.7048C86.787 92.7048 87.387 92.5528 87.947 92.2488C88.523 91.9288 88.915 91.5128 89.123 91.0008L91.883 91.7688C91.579 92.4088 91.139 92.9768 90.563 93.4728C90.003 93.9688 89.339 94.3608 88.571 94.6488C87.803 94.9208 86.955 95.0568 86.027 95.0568ZM82.739 87.5208H89.315C89.251 86.8808 89.067 86.3288 88.763 85.8648C88.475 85.3848 88.091 85.0168 87.611 84.7608C87.131 84.4888 86.595 84.3528 86.003 84.3528C85.427 84.3528 84.899 84.4888 84.419 84.7608C83.955 85.0168 83.571 85.3848 83.267 85.8648C82.979 86.3288 82.803 86.8808 82.739 87.5208ZM99.1941 95.0568C98.1221 95.0568 97.0981 94.8808 96.1221 94.5288C95.1461 94.1768 94.3061 93.6568 93.6021 92.9688L94.7541 90.8808C95.5061 91.4888 96.2421 91.9368 96.9621 92.2248C97.6981 92.5128 98.4021 92.6568 99.0741 92.6568C99.6981 92.6568 100.194 92.5448 100.562 92.3208C100.946 92.0968 101.138 91.7608 101.138 91.3128C101.138 91.0088 101.034 90.7768 100.826 90.6168C100.618 90.4408 100.314 90.2888 99.9141 90.1608C99.5301 90.0328 99.0581 89.8888 98.4981 89.7288C97.5701 89.4248 96.7941 89.1288 96.1701 88.8408C95.5461 88.5528 95.0741 88.1928 94.7541 87.7608C94.4501 87.3128 94.2981 86.7448 94.2981 86.0568C94.2981 85.2248 94.5061 84.5128 94.9221 83.9208C95.3541 83.3128 95.9461 82.8408 96.6981 82.5048C97.4661 82.1688 98.3621 82.0008 99.3861 82.0008C100.282 82.0008 101.13 82.1448 101.93 82.4328C102.73 82.7048 103.458 83.1528 104.114 83.7768L102.818 85.8168C102.178 85.3208 101.57 84.9608 100.994 84.7368C100.418 84.4968 99.8341 84.3768 99.2421 84.3768C98.9061 84.3768 98.5861 84.4168 98.2821 84.4968C97.9941 84.5768 97.7541 84.7128 97.5621 84.9048C97.3861 85.0808 97.2981 85.3368 97.2981 85.6728C97.2981 85.9768 97.3781 86.2168 97.5381 86.3928C97.7141 86.5528 97.9701 86.6968 98.3061 86.8248C98.6581 86.9528 99.0821 87.0968 99.5781 87.2568C100.586 87.5448 101.434 87.8408 102.122 88.1448C102.826 88.4488 103.354 88.8248 103.706 89.2728C104.058 89.7048 104.234 90.3048 104.234 91.0728C104.234 92.3208 103.778 93.2968 102.866 94.0008C101.954 94.7048 100.73 95.0568 99.1941 95.0568ZM113.887 94.1688C113.615 94.2808 113.287 94.4088 112.903 94.5528C112.519 94.6968 112.103 94.8088 111.655 94.8888C111.223 94.9848 110.783 95.0328 110.335 95.0328C109.743 95.0328 109.199 94.9288 108.703 94.7208C108.207 94.5128 107.807 94.1848 107.503 93.7368C107.215 93.2728 107.071 92.6728 107.071 91.9368V84.7128H105.415V82.2408H107.071V78.1608H110.287V82.2408H112.927V84.7128H110.287V90.8568C110.303 91.2888 110.423 91.6008 110.647 91.7928C110.871 91.9848 111.151 92.0808 111.487 92.0808C111.823 92.0808 112.151 92.0248 112.471 91.9128C112.791 91.8008 113.047 91.7048 113.239 91.6248L113.887 94.1688Z" fill="#374B5C"/>
<path d="M520.94 49.7768L526.1 58.6568L531.308 49.7768H533.66L527.18 60.6008V66.8168H525.02V60.5528L518.564 49.7768H520.94ZM538.975 67.0568C538.031 67.0568 537.175 66.8888 536.407 66.5528C535.639 66.2008 534.975 65.7288 534.415 65.1368C533.855 64.5288 533.423 63.8328 533.119 63.0488C532.815 62.2648 532.663 61.4408 532.663 60.5768C532.663 59.6968 532.815 58.8648 533.119 58.0808C533.423 57.2968 533.855 56.6088 534.415 56.0168C534.975 55.4088 535.639 54.9368 536.407 54.6008C537.191 54.2488 538.055 54.0728 538.999 54.0728C539.927 54.0728 540.775 54.2488 541.543 54.6008C542.311 54.9368 542.975 55.4088 543.535 56.0168C544.111 56.6088 544.551 57.2968 544.855 58.0808C545.159 58.8648 545.311 59.6968 545.311 60.5768C545.311 61.4408 545.159 62.2648 544.855 63.0488C544.551 63.8328 544.119 64.5288 543.559 65.1368C542.999 65.7288 542.327 66.2008 541.543 66.5528C540.775 66.8888 539.919 67.0568 538.975 67.0568ZM534.823 60.6008C534.823 61.4648 535.007 62.2488 535.375 62.9528C535.759 63.6568 536.263 64.2168 536.887 64.6328C537.511 65.0328 538.207 65.2328 538.975 65.2328C539.743 65.2328 540.439 65.0248 541.063 64.6088C541.703 64.1928 542.207 63.6328 542.575 62.9288C542.959 62.2088 543.151 61.4168 543.151 60.5528C543.151 59.6888 542.959 58.9048 542.575 58.2008C542.207 57.4968 541.703 56.9368 541.063 56.5208C540.439 56.1048 539.743 55.8968 538.975 55.8968C538.207 55.8968 537.511 56.1128 536.887 56.5448C536.263 56.9608 535.759 57.5208 535.375 58.2248C535.007 58.9288 534.823 59.7208 534.823 60.6008ZM547.75 61.8008V54.2888H549.862V61.3928C549.862 62.6728 550.086 63.6328 550.534 64.2728C550.982 64.9128 551.646 65.2328 552.526 65.2328C553.102 65.2328 553.654 65.1128 554.182 64.8728C554.726 64.6168 555.214 64.2568 555.646 63.7928C556.078 63.3288 556.414 62.7768 556.654 62.1368V54.2888H558.766V64.4168C558.766 64.6728 558.814 64.8648 558.91 64.9928C559.022 65.1048 559.198 65.1688 559.438 65.1848V66.8168C559.198 66.8488 559.006 66.8648 558.862 66.8648C558.734 66.8808 558.606 66.8888 558.478 66.8888C558.078 66.8888 557.734 66.7688 557.446 66.5288C557.158 66.2728 557.006 65.9608 556.99 65.5928L556.942 64.1288C556.398 65.0568 555.662 65.7768 554.734 66.2888C553.822 66.8008 552.822 67.0568 551.734 67.0568C550.422 67.0568 549.43 66.6168 548.758 65.7368C548.086 64.8408 547.75 63.5288 547.75 61.8008Z" fill="#00BD6A"/>
<path d="M520.028 94.8168V77.7768H527.252C528.036 77.7768 528.756 77.9368 529.412 78.2568C530.068 78.5768 530.636 79.0088 531.116 79.5528C531.612 80.0968 531.996 80.7048 532.268 81.3768C532.54 82.0488 532.676 82.7368 532.676 83.4408C532.676 84.4008 532.452 85.3128 532.004 86.1768C531.556 87.0408 530.94 87.7448 530.156 88.2888C529.372 88.8328 528.444 89.1048 527.372 89.1048H523.34V94.8168H520.028ZM523.34 86.2008H527.18C527.58 86.2008 527.94 86.0888 528.26 85.8648C528.58 85.6408 528.836 85.3208 529.028 84.9048C529.22 84.4728 529.316 83.9848 529.316 83.4408C529.316 82.8488 529.204 82.3448 528.98 81.9288C528.772 81.5128 528.492 81.2008 528.14 80.9928C527.804 80.7848 527.436 80.6808 527.036 80.6808H523.34V86.2008ZM542.157 85.0248C541.181 85.0248 540.309 85.2168 539.541 85.6008C538.773 85.9688 538.221 86.5048 537.885 87.2088V94.8168H534.669V82.2408H537.621V84.9288C538.069 84.0648 538.637 83.3848 539.325 82.8888C540.013 82.3928 540.741 82.1208 541.509 82.0728C541.685 82.0728 541.821 82.0728 541.917 82.0728C542.013 82.0728 542.093 82.0808 542.157 82.0968V85.0248ZM549.594 95.0568C548.57 95.0568 547.65 94.8888 546.834 94.5528C546.018 94.2008 545.322 93.7208 544.746 93.1128C544.186 92.5048 543.754 91.8088 543.45 91.0248C543.146 90.2408 542.994 89.4168 542.994 88.5528C542.994 87.6728 543.146 86.8408 543.45 86.0568C543.754 85.2728 544.186 84.5768 544.746 83.9688C545.322 83.3608 546.018 82.8888 546.834 82.5528C547.65 82.2008 548.57 82.0248 549.594 82.0248C550.618 82.0248 551.53 82.2008 552.33 82.5528C553.146 82.8888 553.842 83.3608 554.418 83.9688C554.994 84.5768 555.426 85.2728 555.714 86.0568C556.018 86.8408 556.17 87.6728 556.17 88.5528C556.17 89.4168 556.018 90.2408 555.714 91.0248C555.426 91.8088 554.994 92.5048 554.418 93.1128C553.858 93.7208 553.17 94.2008 552.354 94.5528C551.538 94.8888 550.618 95.0568 549.594 95.0568ZM546.306 88.5528C546.306 89.2888 546.45 89.9448 546.738 90.5208C547.026 91.0808 547.418 91.5208 547.914 91.8408C548.41 92.1608 548.97 92.3208 549.594 92.3208C550.202 92.3208 550.754 92.1608 551.25 91.8408C551.746 91.5048 552.138 91.0568 552.426 90.4968C552.73 89.9208 552.882 89.2648 552.882 88.5288C552.882 87.8088 552.73 87.1608 552.426 86.5848C552.138 86.0088 551.746 85.5608 551.25 85.2408C550.754 84.9208 550.202 84.7608 549.594 84.7608C548.97 84.7608 548.41 84.9288 547.914 85.2648C547.418 85.5848 547.026 86.0328 546.738 86.6088C546.45 87.1688 546.306 87.8168 546.306 88.5528ZM558.992 85.3608H557.336V82.9128H558.992V82.1448C558.992 81.4408 559.104 80.7848 559.328 80.1768C559.568 79.5688 559.904 79.0328 560.336 78.5688C560.784 78.0888 561.32 77.7208 561.944 77.4648C562.584 77.1928 563.304 77.0568 564.104 77.0568C564.712 77.0568 565.28 77.1208 565.808 77.2488C566.352 77.3768 566.864 77.5608 567.344 77.8008C567.84 78.0408 568.312 78.3128 568.76 78.6168L567.488 81.0168C567.072 80.6488 566.584 80.3528 566.024 80.1288C565.464 79.9048 564.896 79.7928 564.32 79.7928C563.856 79.7928 563.464 79.8968 563.144 80.1048C562.824 80.3128 562.584 80.5848 562.424 80.9208C562.28 81.2568 562.208 81.6248 562.208 82.0248V82.9128H568.952V94.8168H565.736V85.3608H562.208V94.8168H558.992V85.3608ZM579.4 94.1688C579.128 94.2808 578.8 94.4088 578.416 94.5528C578.032 94.6968 577.616 94.8088 577.168 94.8888C576.736 94.9848 576.296 95.0328 575.848 95.0328C575.256 95.0328 574.712 94.9288 574.216 94.7208C573.72 94.5128 573.32 94.1848 573.016 93.7368C572.728 93.2728 572.584 92.6728 572.584 91.9368V84.7128H570.928V82.2408H572.584V78.1608H575.8V82.2408H578.44V84.7128H575.8V90.8568C575.816 91.2888 575.936 91.6008 576.16 91.7928C576.384 91.9848 576.664 92.0808 577 92.0808C577.336 92.0808 577.664 92.0248 577.984 91.9128C578.304 91.8008 578.56 91.7048 578.752 91.6248L579.4 94.1688Z" fill="#374B5C"/>
<path d="M254.54 84.8855L246.585 55.7946H250.165L256.244 79.4878H256.528L262.722 55.7946H266.699L272.892 79.4878H273.176L279.256 55.7946H282.835L274.881 84.8855H271.244L264.824 61.7037H264.597L258.176 84.8855H254.54ZM293.886 85.34C291.784 85.34 289.971 84.876 288.446 83.948C286.931 83.0105 285.761 81.7037 284.937 80.0275C284.123 78.3419 283.716 76.3817 283.716 74.1469C283.716 71.912 284.123 69.9423 284.937 68.2378C285.761 66.5238 286.907 65.1885 288.375 64.2321C289.852 63.2662 291.576 62.7832 293.545 62.7832C294.682 62.7832 295.804 62.9726 296.912 63.3514C298.02 63.7302 299.028 64.3457 299.937 65.198C300.847 66.0408 301.571 67.1582 302.111 68.5503C302.651 69.9423 302.92 71.6563 302.92 73.6923V75.1128H286.102V72.215H299.511C299.511 70.984 299.265 69.8855 298.773 68.9196C298.29 67.9537 297.598 67.1914 296.699 66.6327C295.809 66.0739 294.758 65.7946 293.545 65.7946C292.21 65.7946 291.055 66.126 290.08 66.7889C289.114 67.4423 288.37 68.2946 287.849 69.3457C287.329 70.3969 287.068 71.5238 287.068 72.7264V74.6582C287.068 76.306 287.352 77.7027 287.92 78.8486C288.498 79.9849 289.298 80.8514 290.321 81.448C291.344 82.0351 292.532 82.3287 293.886 82.3287C294.767 82.3287 295.562 82.2056 296.273 81.9594C296.992 81.7037 297.613 81.3249 298.133 80.823C298.654 80.3116 299.057 79.6772 299.341 78.9196L302.58 79.8287C302.239 80.9272 301.666 81.8931 300.861 82.7264C300.056 83.5503 299.062 84.1942 297.878 84.6582C296.694 85.1128 295.364 85.34 293.886 85.34Z" fill="#00BD6A"/>
<path d="M324.793 43.2367V25.7821H335.259V27.6571H326.906V33.5549H334.475V35.4299H326.906V43.2367H324.793ZM342.458 43.5435C341.629 43.5435 340.876 43.3873 340.2 43.0748C339.524 42.7566 338.987 42.2992 338.589 41.7026C338.191 41.1003 337.992 40.3731 337.992 39.5208C337.992 38.7708 338.14 38.1628 338.436 37.6969C338.731 37.2253 339.126 36.856 339.62 36.589C340.115 36.3219 340.66 36.1231 341.257 35.9924C341.859 35.856 342.464 35.7481 343.072 35.6685C343.867 35.5662 344.512 35.4895 345.007 35.4384C345.507 35.3816 345.87 35.2878 346.098 35.1571C346.33 35.0265 346.447 34.7992 346.447 34.4753V34.4071C346.447 33.5662 346.217 32.9128 345.757 32.4469C345.302 31.981 344.612 31.7481 343.686 31.7481C342.725 31.7481 341.973 31.9583 341.427 32.3787C340.882 32.7992 340.498 33.2481 340.277 33.7253L338.367 33.0435C338.708 32.2481 339.163 31.6287 339.731 31.1856C340.305 30.7367 340.93 30.4242 341.606 30.2481C342.288 30.0662 342.958 29.9753 343.617 29.9753C344.038 29.9753 344.521 30.0265 345.066 30.1287C345.617 30.2253 346.149 30.427 346.66 30.7339C347.177 31.0407 347.606 31.5037 347.947 32.1231C348.288 32.7424 348.458 33.5719 348.458 34.6117V43.2367H346.447V41.464H346.345C346.208 41.7481 345.981 42.052 345.663 42.3759C345.345 42.6998 344.921 42.9753 344.393 43.2026C343.865 43.4299 343.22 43.5435 342.458 43.5435ZM342.765 41.7367C343.561 41.7367 344.231 41.5804 344.777 41.2679C345.328 40.9554 345.742 40.552 346.021 40.0577C346.305 39.5634 346.447 39.0435 346.447 38.4981V36.6571C346.362 36.7594 346.174 36.8532 345.884 36.9384C345.6 37.0179 345.271 37.089 344.896 37.1515C344.527 37.2083 344.166 37.2594 343.813 37.3049C343.467 37.3446 343.186 37.3787 342.97 37.4071C342.447 37.4753 341.958 37.5861 341.504 37.7395C341.055 37.8873 340.691 38.1117 340.413 38.4128C340.14 38.7083 340.004 39.1117 340.004 39.6231C340.004 40.3219 340.262 40.8503 340.779 41.2083C341.302 41.5606 341.964 41.7367 342.765 41.7367ZM352.129 43.2367V30.1458H354.073V32.1231H354.209C354.448 31.4753 354.879 30.9498 355.504 30.5464C356.129 30.1429 356.834 29.9412 357.618 29.9412C357.766 29.9412 357.951 29.9441 358.172 29.9498C358.394 29.9554 358.561 29.964 358.675 29.9753V32.0208C358.607 32.0037 358.451 31.9782 358.206 31.9441C357.968 31.9043 357.715 31.8844 357.448 31.8844C356.811 31.8844 356.243 32.0179 355.743 32.285C355.249 32.5464 354.857 32.91 354.567 33.3759C354.283 33.8361 354.141 34.3617 354.141 34.9526V43.2367H352.129ZM361.059 43.2367V30.1458H363.002V32.1912H363.173C363.446 31.4924 363.886 30.9498 364.494 30.5634C365.102 30.1714 365.832 29.9753 366.684 29.9753C367.548 29.9753 368.267 30.1714 368.84 30.5634C369.42 30.9498 369.872 31.4924 370.196 32.1912H370.332C370.667 31.5151 371.17 30.9782 371.84 30.5804C372.511 30.177 373.315 29.9753 374.252 29.9753C375.423 29.9753 376.38 30.3418 377.125 31.0748C377.869 31.802 378.241 32.9356 378.241 34.4753V43.2367H376.23V34.4753C376.23 33.5094 375.965 32.8191 375.437 32.4043C374.909 31.9895 374.286 31.7821 373.571 31.7821C372.65 31.7821 371.937 32.0606 371.431 32.6174C370.926 33.1685 370.673 33.8674 370.673 34.714V43.2367H368.627V34.2708C368.627 33.5265 368.386 32.927 367.903 32.4725C367.42 32.0123 366.798 31.7821 366.036 31.7821C365.514 31.7821 365.025 31.9214 364.571 32.1998C364.122 32.4782 363.758 32.8645 363.48 33.3589C363.207 33.8475 363.071 34.4128 363.071 35.0549V43.2367H361.059ZM324.793 72.2367V54.7821H330.691C332.06 54.7821 333.179 55.0293 334.049 55.5236C334.924 56.0123 335.571 56.6742 335.992 57.5094C336.412 58.3446 336.622 59.2765 336.622 60.3049C336.622 61.3333 336.412 62.2679 335.992 63.1089C335.577 63.9498 334.935 64.6202 334.066 65.1202C333.196 65.6145 332.083 65.8617 330.725 65.8617H326.497V63.9867H330.656C331.594 63.9867 332.347 63.8248 332.915 63.5009C333.483 63.177 333.895 62.7395 334.151 62.1884C334.412 61.6316 334.543 61.0037 334.543 60.3049C334.543 59.606 334.412 58.981 334.151 58.4299C333.895 57.8787 333.48 57.4469 332.906 57.1344C332.333 56.8162 331.571 56.6571 330.622 56.6571H326.906V72.2367H324.793ZM339.754 72.2367V59.1458H341.698V61.1231H341.834C342.073 60.4753 342.504 59.9498 343.129 59.5464C343.754 59.1429 344.459 58.9412 345.243 58.9412C345.391 58.9412 345.576 58.9441 345.797 58.9498C346.019 58.9554 346.186 58.964 346.3 58.9753V61.0208C346.232 61.0037 346.076 60.9782 345.831 60.9441C345.593 60.9043 345.34 60.8844 345.073 60.8844C344.436 60.8844 343.868 61.0179 343.368 61.285C342.874 61.5464 342.482 61.91 342.192 62.3759C341.908 62.8361 341.766 63.3617 341.766 63.9526V72.2367H339.754ZM353.604 72.5094C352.422 72.5094 351.385 72.2282 350.493 71.6657C349.607 71.1032 348.914 70.3162 348.414 69.3049C347.919 68.2935 347.672 67.1117 347.672 65.7594C347.672 64.3958 347.919 63.2054 348.414 62.1884C348.914 61.1714 349.607 60.3816 350.493 59.8191C351.385 59.2566 352.422 58.9753 353.604 58.9753C354.786 58.9753 355.82 59.2566 356.706 59.8191C357.598 60.3816 358.291 61.1714 358.786 62.1884C359.286 63.2054 359.536 64.3958 359.536 65.7594C359.536 67.1117 359.286 68.2935 358.786 69.3049C358.291 70.3162 357.598 71.1032 356.706 71.6657C355.82 72.2282 354.786 72.5094 353.604 72.5094ZM353.604 70.7026C354.502 70.7026 355.24 70.4725 355.82 70.0123C356.399 69.552 356.828 68.9469 357.107 68.1969C357.385 67.4469 357.524 66.6344 357.524 65.7594C357.524 64.8844 357.385 64.0691 357.107 63.3134C356.828 62.5577 356.399 61.9469 355.82 61.481C355.24 61.0151 354.502 60.7821 353.604 60.7821C352.706 60.7821 351.968 61.0151 351.388 61.481C350.808 61.9469 350.379 62.5577 350.101 63.3134C349.823 64.0691 349.683 64.8844 349.683 65.7594C349.683 66.6344 349.823 67.4469 350.101 68.1969C350.379 68.9469 350.808 69.552 351.388 70.0123C351.968 70.4725 352.706 70.7026 353.604 70.7026ZM367.924 72.5094C366.697 72.5094 365.64 72.2196 364.754 71.6401C363.867 71.0606 363.186 70.2623 362.708 69.2452C362.231 68.2282 361.992 67.0662 361.992 65.7594C361.992 64.4299 362.237 63.2566 362.725 62.2395C363.22 61.2168 363.907 60.4185 364.788 59.8446C365.674 59.2651 366.708 58.9753 367.89 58.9753C368.811 58.9753 369.64 59.1458 370.379 59.4867C371.117 59.8276 371.723 60.3049 372.194 60.9185C372.666 61.5321 372.958 62.2481 373.072 63.0662H371.061C370.907 62.4696 370.566 61.9412 370.038 61.481C369.515 61.0151 368.811 60.7821 367.924 60.7821C367.14 60.7821 366.453 60.9867 365.862 61.3958C365.277 61.7992 364.819 62.3702 364.49 63.1089C364.166 63.8418 364.004 64.7026 364.004 65.6912C364.004 66.7026 364.163 67.5833 364.481 68.3333C364.805 69.0833 365.259 69.6657 365.845 70.0804C366.436 70.4952 367.129 70.7026 367.924 70.7026C368.447 70.7026 368.921 70.6117 369.348 70.4299C369.774 70.2481 370.134 69.9867 370.43 69.6458C370.725 69.3049 370.936 68.8958 371.061 68.4185H373.072C372.958 69.1912 372.677 69.8873 372.228 70.5066C371.785 71.1202 371.197 71.6089 370.464 71.9725C369.737 72.3304 368.89 72.5094 367.924 72.5094ZM381.501 72.5094C380.24 72.5094 379.152 72.231 378.237 71.6742C377.328 71.1117 376.626 70.3276 376.132 69.3219C375.643 68.3106 375.399 67.1344 375.399 65.7935C375.399 64.4526 375.643 63.2708 376.132 62.2481C376.626 61.2196 377.313 60.4185 378.194 59.8446C379.08 59.2651 380.115 58.9753 381.296 58.9753C381.978 58.9753 382.652 59.089 383.316 59.3162C383.981 59.5435 384.586 59.9128 385.132 60.4242C385.677 60.9299 386.112 61.6003 386.436 62.4356C386.759 63.2708 386.921 64.2992 386.921 65.5208V66.3731H376.83V64.6344H384.876C384.876 63.8958 384.728 63.2367 384.433 62.6571C384.143 62.0776 383.728 61.6202 383.188 61.285C382.654 60.9498 382.024 60.7821 381.296 60.7821C380.495 60.7821 379.802 60.981 379.217 61.3787C378.637 61.7708 378.191 62.2821 377.879 62.9128C377.566 63.5435 377.41 64.2196 377.41 64.9412V66.1003C377.41 67.089 377.58 67.927 377.921 68.6145C378.268 69.2964 378.748 69.8162 379.362 70.1742C379.975 70.5265 380.688 70.7026 381.501 70.7026C382.029 70.7026 382.507 70.6287 382.933 70.481C383.365 70.3276 383.737 70.1003 384.049 69.7992C384.362 69.4924 384.603 69.1117 384.774 68.6571L386.717 69.2026C386.512 69.8617 386.169 70.4412 385.686 70.9412C385.203 71.4356 384.606 71.8219 383.896 72.1003C383.186 72.3731 382.387 72.5094 381.501 72.5094ZM399.254 62.0776L397.447 62.589C397.333 62.2878 397.166 61.9952 396.944 61.7111C396.728 61.4214 396.433 61.1827 396.058 60.9952C395.683 60.8077 395.203 60.714 394.617 60.714C393.816 60.714 393.149 60.8986 392.615 61.2679C392.086 61.6316 391.822 62.0946 391.822 62.6571C391.822 63.1571 392.004 63.552 392.367 63.8418C392.731 64.1316 393.299 64.3731 394.072 64.5662L396.015 65.0435C397.186 65.3276 398.058 65.7623 398.632 66.3475C399.205 66.927 399.492 67.6742 399.492 68.589C399.492 69.339 399.277 70.0094 398.845 70.6003C398.419 71.1912 397.822 71.6571 397.055 71.9981C396.288 72.339 395.396 72.5094 394.379 72.5094C393.044 72.5094 391.938 72.2196 391.063 71.6401C390.188 71.0606 389.634 70.214 389.402 69.1003L391.311 68.6231C391.492 69.3276 391.836 69.856 392.342 70.2083C392.853 70.5606 393.521 70.7367 394.345 70.7367C395.282 70.7367 396.027 70.5378 396.578 70.1401C397.134 69.7367 397.413 69.2537 397.413 68.6912C397.413 68.2367 397.254 67.856 396.936 67.5492C396.617 67.2367 396.129 67.0037 395.47 66.8503L393.288 66.339C392.089 66.0549 391.208 65.6145 390.646 65.0179C390.089 64.4157 389.811 63.6628 389.811 62.7594C389.811 62.0208 390.018 61.3674 390.433 60.7992C390.853 60.231 391.424 59.785 392.146 59.4611C392.873 59.1373 393.697 58.9753 394.617 58.9753C395.913 58.9753 396.93 59.2594 397.669 59.8276C398.413 60.3958 398.941 61.1458 399.254 62.0776ZM411.793 62.0776L409.986 62.589C409.872 62.2878 409.705 61.9952 409.483 61.7111C409.267 61.4214 408.972 61.1827 408.597 60.9952C408.222 60.8077 407.742 60.714 407.156 60.714C406.355 60.714 405.688 60.8986 405.154 61.2679C404.625 61.6316 404.361 62.0946 404.361 62.6571C404.361 63.1571 404.543 63.552 404.906 63.8418C405.27 64.1316 405.838 64.3731 406.611 64.5662L408.554 65.0435C409.725 65.3276 410.597 65.7623 411.171 66.3475C411.745 66.927 412.031 67.6742 412.031 68.589C412.031 69.339 411.816 70.0094 411.384 70.6003C410.958 71.1912 410.361 71.6571 409.594 71.9981C408.827 72.339 407.935 72.5094 406.918 72.5094C405.583 72.5094 404.477 72.2196 403.602 71.6401C402.727 71.0606 402.174 70.214 401.941 69.1003L403.85 68.6231C404.031 69.3276 404.375 69.856 404.881 70.2083C405.392 70.5606 406.06 70.7367 406.884 70.7367C407.821 70.7367 408.566 70.5378 409.117 70.1401C409.674 69.7367 409.952 69.2537 409.952 68.6912C409.952 68.2367 409.793 67.856 409.475 67.5492C409.156 67.2367 408.668 67.0037 408.009 66.8503L405.827 66.339C404.628 66.0549 403.747 65.6145 403.185 65.0179C402.628 64.4157 402.35 63.6628 402.35 62.7594C402.35 62.0208 402.557 61.3674 402.972 60.7992C403.392 60.231 403.963 59.785 404.685 59.4611C405.412 59.1373 406.236 58.9753 407.156 58.9753C408.452 58.9753 409.469 59.2594 410.208 59.8276C410.952 60.3958 411.48 61.1458 411.793 62.0776ZM334.338 88.1458C334.236 87.2821 333.821 86.6117 333.094 86.1344C332.367 85.6571 331.475 85.4185 330.418 85.4185C329.645 85.4185 328.969 85.5435 328.389 85.7935C327.816 86.0435 327.367 86.3873 327.043 86.8248C326.725 87.2623 326.566 87.7594 326.566 88.3162C326.566 88.7821 326.676 89.1827 326.898 89.5179C327.125 89.8475 327.415 90.1231 327.767 90.3446C328.12 90.5606 328.489 90.7395 328.875 90.8816C329.262 91.0179 329.617 91.1287 329.941 91.214L331.713 91.6912C332.168 91.8106 332.674 91.9753 333.23 92.1856C333.793 92.3958 334.33 92.6827 334.841 93.0464C335.358 93.4043 335.784 93.8645 336.12 94.427C336.455 94.9895 336.622 95.6799 336.622 96.4981C336.622 97.4412 336.375 98.2935 335.881 99.0549C335.392 99.8162 334.676 100.421 333.733 100.87C332.796 101.319 331.656 101.544 330.316 101.544C329.066 101.544 327.983 101.342 327.068 100.938C326.159 100.535 325.443 99.9725 324.921 99.2509C324.404 98.5293 324.111 97.6912 324.043 96.7367H326.225C326.281 97.3958 326.503 97.9412 326.889 98.3731C327.281 98.7992 327.776 99.1174 328.372 99.3276C328.975 99.5321 329.622 99.6344 330.316 99.6344C331.122 99.6344 331.847 99.5037 332.489 99.2424C333.131 98.9753 333.639 98.606 334.014 98.1344C334.389 97.6571 334.577 97.1003 334.577 96.464C334.577 95.8844 334.415 95.4128 334.091 95.0492C333.767 94.6856 333.341 94.3901 332.813 94.1628C332.284 93.9356 331.713 93.7367 331.1 93.5662L328.952 92.9526C327.588 92.5606 326.509 92.0009 325.713 91.2736C324.918 90.5464 324.52 89.5946 324.52 88.4185C324.52 87.4412 324.784 86.589 325.313 85.8617C325.847 85.1287 326.563 84.5606 327.46 84.1571C328.364 83.7481 329.372 83.5435 330.486 83.5435C331.611 83.5435 332.611 83.7452 333.486 84.1486C334.361 84.5464 335.054 85.0918 335.566 85.785C336.083 86.4782 336.355 87.2651 336.384 88.1458H334.338ZM345.313 101.509C344.052 101.509 342.964 101.231 342.049 100.674C341.14 100.112 340.438 99.3276 339.944 98.3219C339.455 97.3106 339.211 96.1344 339.211 94.7935C339.211 93.4526 339.455 92.2708 339.944 91.2481C340.438 90.2196 341.126 89.4185 342.007 88.8446C342.893 88.2651 343.927 87.9753 345.109 87.9753C345.791 87.9753 346.464 88.089 347.129 88.3162C347.794 88.5435 348.399 88.9128 348.944 89.4242C349.49 89.9299 349.924 90.6003 350.248 91.4356C350.572 92.2708 350.734 93.2992 350.734 94.5208V95.3731H340.643V93.6344H348.688C348.688 92.8958 348.541 92.2367 348.245 91.6571C347.955 91.0776 347.541 90.6202 347.001 90.285C346.467 89.9498 345.836 89.7821 345.109 89.7821C344.308 89.7821 343.615 89.981 343.029 90.3787C342.45 90.7708 342.004 91.2821 341.691 91.9128C341.379 92.5435 341.223 93.2196 341.223 93.9412V95.1003C341.223 96.089 341.393 96.927 341.734 97.6145C342.08 98.2964 342.561 98.8162 343.174 99.1742C343.788 99.5265 344.501 99.7026 345.313 99.7026C345.842 99.7026 346.319 99.6287 346.745 99.481C347.177 99.3276 347.549 99.1003 347.862 98.7992C348.174 98.4924 348.416 98.1117 348.586 97.6571L350.529 98.2026C350.325 98.8617 349.981 99.4412 349.498 99.9412C349.015 100.436 348.419 100.822 347.708 101.1C346.998 101.373 346.2 101.509 345.313 101.509ZM355.805 83.7821V101.237H353.794V83.7821H355.805ZM361.5 83.7821V101.237H359.489V83.7821H361.5Z" fill="black"/>
</svg>
