<svg width="1440" height="378" viewBox="0 0 1440 378" fill="none" xmlns="http://www.w3.org/2000/svg">
<path d="M637.343 622.753C633.747 622.632 630.154 622.507 626.563 622.378C616.376 615.828 603.943 623.687 593.741 617.273L593.788 617.305C568.584 605.802 546.269 626.415 521.586 624.023C515.004 623.381 507.876 626.978 501.286 622.499C477.445 607.799 451.085 604.494 423.971 606.749C414.989 607.503 406.303 608.531 397.49 606.38C382.183 600.673 366.859 597.084 350.171 600.755C341.213 602.721 332.103 600.626 326.096 592.133C336.446 567.25 359.159 560.869 381.988 558.99C395.987 557.834 407.682 553.901 420.538 549.342C447.559 539.764 476.393 539.675 505.145 538.904C505.113 537.724 500.762 539.618 500.409 537.965C495.633 515.915 475.028 511.058 460.17 499.612C448.78 490.837 435.645 479.119 458.717 467.375C460.331 466.556 462.467 464.9 462.297 463.482C457.256 421.012 495.737 429.231 515.097 416.907C506.132 420.029 498.313 420.198 490.679 409.049C476.375 388.147 466.51 388.949 452.07 409.199C449.421 412.907 448.024 417.362 445.552 421.135C434.779 437.598 420.235 443.081 404.462 429.772C389.018 416.752 375.565 420.107 363.388 431.747C347.134 447.295 332.268 456.309 312.426 436.86C303.476 428.078 293.555 434.452 285.501 440.866C269.918 453.289 256.193 450.985 236.428 445.96C207.057 438.479 187.921 425.627 175.817 399.131C172.983 392.926 167.099 392.236 159.674 392.846C130.143 395.285 113.07 383.39 101.351 352.061C93.3255 330.62 97.8345 312.801 120.4 302.326C124.414 300.464 129.158 297.451 125.634 291.955C122.471 287.027 116.634 283.719 111.834 288.134C104.345 295.022 93.234 300.215 97.3132 314.455C100.957 327.205 91.8788 332.78 81.5963 335.542C69.4463 338.809 65.3655 329.842 63.1666 320.636C58.3988 300.611 41.4697 281.32 60.189 259.526C63.7927 255.336 61.602 243.272 55.7745 243.464C34.3589 244.171 38.0107 226.696 33.0097 215.555C30.4087 209.751 29.3573 201.98 24.7178 198.605C-2.09998 179.105 3.35022 148.508 -3.00751 121.964C-1.62628 119.613 0.402527 117.71 2.83649 116.481C45.7245 112.62 88.6845 109.979 131.757 109.321C138.877 109.208 146.92 111.681 152.539 106.286C167.914 91.525 178.032 101.582 188.251 112.788C197.425 121.184 199.472 133.409 204.313 144.013C214.194 165.688 209.674 171.593 184.278 172.468C189.937 178.529 196.15 179.692 203.751 176.184C229.943 164.104 229.991 164.208 239.953 191.178C240.328 182.316 233.603 174.065 236.798 164.866C239.423 157.32 239.431 147.624 249.553 145.931C258.904 144.365 264.466 151.244 269.291 158.019C274.099 164.742 276.293 172.986 275.464 181.209C274.813 189.107 272.309 197.64 281.089 203.973C289.396 200.329 285.255 193.201 285.07 187.742C284.684 176.24 289.356 165.797 300.137 165.259C312.916 164.625 310.122 177.428 310.651 185.984C310.868 189.588 310.298 193.249 312.273 196.559C311.727 200.163 317.964 197.384 314.359 197.868C313.3 198.005 312.979 197.162 313.38 195.332C319.344 168.425 327.949 167.398 353.94 190.457C355.815 192.15 357.576 193.949 359.334 195.746C365.37 201.815 373.434 204.399 381.151 206.382C395.888 210.179 405.536 217.411 404.573 234.717C406.837 217.467 422.313 222.629 431.295 217.339C426.744 214.931 422.506 213.229 419.086 210.195C412.411 204.279 396.586 202.642 404.654 189.149C411.019 178.505 422.121 168.993 436.545 174.756C452.904 181.29 479.24 180.584 466.084 212.25C462.528 220.783 472.69 225.431 480.098 223.391C498.592 218.286 503.906 230.045 509.902 243.185C516.035 256.639 523.604 269.337 541.553 267.009C535.942 262.643 521.967 266.207 523.508 254.688C524.977 243.707 536.44 243.513 545.438 244.205C556.346 245.04 566.789 248.283 577.753 255.628C574.254 244.382 568.314 229.251 582.136 227.285C598.336 224.981 618.482 210.26 631.542 229.385C628.564 221.486 622.055 216.373 608.722 220.226C590.212 225.58 589.273 214.085 591.103 200.825C577.432 216.557 558.682 224.993 537.258 226.045C526.221 226.591 515.072 223.484 512.76 209.486C510.416 195.342 518.716 191.474 530.7 187.613C540.075 184.586 558.634 187.3 557.117 175.195C555.374 161.381 536.576 160.442 524.969 161.83C503.738 164.358 485.853 156.364 467.126 149.958C458.569 147.029 450.431 142.509 440.966 143.103C381.35 146.853 323.348 135.871 265.541 123.63C240.811 118.396 214.547 128.729 190.706 115.771C187.544 102.759 182.831 94.6442 165.847 95.407C147.322 96.2418 128.947 88.507 109.907 88.2632C103.59 88.183 97.0725 85.8632 95.3948 78.4787C93.7816 71.3987 98.9198 67.129 103.069 62.2645C115.936 47.2061 137.898 56.509 151.479 43.7703C142.28 45.3198 133.104 52.4313 123.866 43.867C133.747 29.146 148.87 27.9175 164.578 27.9017C233.112 27.8618 301.644 27.7787 370.172 27.6527C370.365 42.358 358.413 39.0752 350.627 39.7172C333.452 41.1302 316.102 40.873 298.893 40.006C286.09 39.3557 276.305 45.706 265.879 50.8983C260.99 53.3305 261.111 58.219 262.339 62.818C263.752 68.143 268.078 70.741 272.645 68.5495C288.779 60.8118 293.555 71.3185 297.785 83.2495C300.33 90.4337 303.236 91.1718 312.33 91.7245C333.105 92.9763 355.37 87.7592 374.924 98.8495C384.115 104.067 390.408 101.362 396.011 94.009C401.944 85.9764 409.902 79.6616 419.072 75.709C434.998 68.7977 450.193 57.184 453.941 87.7577C455.338 99.1397 466.174 100.754 477.821 98.9635C497.872 95.8735 518.63 88.6645 537.871 102.792C541.796 105.674 547.238 105.658 550.529 102.192C562.69 89.3815 568.379 89.0522 580.702 105.692C588.496 116.215 612.16 111.64 628.679 110.685C635.879 110.267 644.709 110.604 644.308 116.384C642.044 148.765 674.449 150.916 688.825 168.487C696.892 178.36 712 182.293 715.82 197.191C717.032 201.887 721.109 204.495 726.191 204.327C731.336 204.167 736.642 200.352 735.727 196.46C728.59 166.328 753.659 148.748 762.536 124.964C768.203 106.727 786.721 104.761 799.909 96.3805C806.676 92.086 813.709 97.2632 817.593 104.423C822.08 112.673 821.848 121.561 813.515 125.847C796.924 134.38 789.804 149.342 782.812 164.882C811.846 173.84 811.597 173.784 805.231 203.701C802.357 217.225 808.418 227.239 821.453 230.839C835.195 234.628 849.226 238.601 863.626 230.984C871.42 226.859 880.33 223.43 889.465 228.688C897.003 239.58 899.475 252.223 899.314 264.881C899.122 280.582 894.458 294.252 874.423 293.144C860.68 292.382 851.57 298.94 847.123 311.213C842.29 324.586 830.023 332.059 823.299 344.083C810.978 366.101 795.895 384.932 765.264 369.512C784.697 386.762 795.489 387.396 805.23 370.733C812.334 358.604 819.317 349.068 834.504 352.832C843.037 354.951 855.976 387.83 854.434 398.177C852.829 408.876 831.702 418.107 850.365 430.139C870.54 443.151 889.993 461.075 917.542 449.228C922.551 447.077 927.6 445.028 932.633 442.95C949.118 436.127 957.823 442.564 956.843 459.55C956.128 471.85 957.268 485.156 948.158 496.859C938.341 497.316 934.44 486.255 925.562 484.473C916.669 482.699 908.762 480.821 908.216 493.6C907.711 505.463 900.641 513.325 890.196 514.341C875.491 515.778 865.408 517.456 863.298 536.046C862.142 546.24 851.707 540.321 846.04 536.014C832.78 525.94 835.582 512.399 838.294 498.656C841.898 480.428 855.255 479.761 869.671 480.387C851.876 455.255 849.196 454.95 837.556 479.624C832.852 489.594 826.206 490.091 817.665 488.133C805.054 485.252 793.29 479.801 783.823 471.269C769.142 458.016 760.144 438.656 741.321 434.65C742.91 438.663 744.821 447.983 755.376 447.59C766.662 447.172 766.71 454.252 766.654 461.717C766.606 467.592 768.499 471.983 772.963 475.949C780.556 482.699 798.408 493.158 790.124 498.175C776.944 506.138 776.254 532.916 752.374 524.528C744.098 521.614 744.563 529.215 743.938 534.433C743.071 541.593 744.805 548.938 742.115 557.27C743.375 552.485 741.746 557.783 741.834 557.42C747.609 533.7 754.3 525.344 763.29 555.959C765.321 562.878 763.057 570.383 761.645 577.535C758.386 594.047 768.769 601.183 782.008 604.45C798.958 608.64 794.443 593.702 797.364 585.45C800.583 576.375 801.923 562.967 815.633 567.125C826.501 570.425 832.426 580.899 830.323 593.324C822.714 638.381 794.796 647.764 751.643 636.728C715.33 627.439 676.166 621.444 637.343 622.753Z" fill="#00BD6A"/>
<path d="M637.344 622.753C649.269 611.82 663.463 621.139 676.323 620.064C684.061 619.414 692.906 616.372 698.991 617.648C707.612 619.438 716.691 625.346 724.725 631.534C731.467 636.728 736.629 632.096 746.205 615.232C758.815 636.078 771.555 642.643 789.847 639.112C797.647 637.603 803.164 635.066 806.222 627.143C809.433 618.795 812.435 609.637 818.142 603.118C830.512 588.983 824.692 579.68 811.183 569.806C804.946 579.856 799.985 589.015 803.782 601.882C806.905 612.437 800.996 617.197 790.152 614.257C778.987 611.23 767.259 610.243 758.895 599.905C752.923 592.512 747.288 587.824 754.528 577.012C761.095 567.202 757.611 555.09 755.251 540.16C743.933 549.385 747.416 562.178 738.579 567.741C733.755 570.775 728.554 575.021 724.748 568.777C720.711 562.162 728.633 562.965 731.852 561.277C739.494 557.279 741.814 551.302 739.427 543.184C738.159 538.857 736.465 534.547 736.008 530.124C735.269 522.811 735.033 514.599 743.039 511.141C751.275 507.577 752.495 517.603 757.544 520.516C759.021 521.374 760.875 521.575 762.97 522.193C772.483 517.249 759.342 507.44 767.634 500.922C774.489 495.536 781.633 500.847 788.672 497.037C779.907 485.647 767.032 480.687 756.251 474.152C755.039 465.804 765.972 461.743 761.372 453.539C745.922 463.42 746.017 463.388 740.558 448.651C736.175 436.819 732.363 425.068 738.929 412.955C747.157 413.083 746.442 418.414 745.304 422.387C743.054 430.213 745.529 435.904 753.179 436.282C766.304 436.924 769.723 445.537 776.224 455.041C788.192 472.516 807.979 480.718 830.278 484.612C833.617 473.47 830.639 461.141 837.67 450.369C862.915 451.003 874.899 468.044 885.037 489.002C871.399 491.057 854.92 476.231 845.898 494.356C836.443 513.348 840.536 523.494 858.444 536.369C867.844 524.519 852.697 512.481 859.231 497.928C869.409 508.531 879.876 516.133 894.115 507.4C901.187 503.057 906.653 499.027 900.448 490.583C893.634 481.304 899.398 479.225 906.838 475.083C916.813 469.528 923.236 481.296 932.026 478.125C945.319 473.325 940.864 488.263 946.563 493.513C950.504 480.381 947.47 468.565 951.243 456.998C954.421 447.238 948.018 444.623 937.068 448.209C922.523 452.977 910.708 465.379 892.358 459.928C870.043 453.29 852.32 439.636 833.593 427.339C828.015 423.671 828.769 416.495 833.842 413.429C856.246 399.895 852.738 385.604 836.531 370.012C835.447 368.976 835.207 366.6 835.303 364.891C836.17 350.394 827.926 356.832 821.641 358.894C812.225 361.977 812.241 371.457 808.54 378.4C801.284 392.029 792.655 395.537 772.451 390.191C760.86 387.125 757.746 375.245 754.054 365.557C752.697 361.977 757.521 356.607 762.996 359.456C774.883 365.637 788.449 373.481 799.888 365.629C809.448 359.071 814.537 345.794 820.966 334.99C829.17 321.199 840.046 308.515 848.731 294.51C853.122 287.422 860.595 284.235 869.842 284.677C889.837 285.632 896.588 278.368 893.096 259.102C891.33 249.357 887.357 240.022 888.4 229.819C873.214 214.095 899.991 196.819 893.369 191.956C876.817 179.795 879.763 166.254 881.658 151.597C883.24 139.324 887.967 128.722 903.667 130.309C925.412 132.508 918.397 119.056 915.756 107.995C915.066 99.7027 914.706 91.5314 923.574 86.7697C931.135 87.1229 935.229 92.79 939.981 97.4452C947.759 104.148 948.77 132.643 967.104 105.504C970.9 99.8849 978.245 98.8979 984.274 102.534C991.795 107.069 991.41 114.317 988.512 121.646C987.853 123.316 986.578 124.753 985.992 126.414C983.23 134.256 967.242 142.363 981.328 149.86C994.051 156.627 998.522 141.055 1004.37 132.627C1008.84 126.181 1008.12 119.021 1006.11 111.789C1004.13 104.685 1002.52 96.9472 1010.08 92.2837C1017.19 87.8932 1024.11 91.6897 1030.24 95.6707C1037.74 100.535 1043.68 107.839 1052.91 109.975C1075.61 126.655 1100.69 140.125 1120.82 160.287C1125.67 166.235 1130.57 172.159 1134.35 178.877C1153.64 200.293 1179.18 210.271 1205.89 218.113C1225.05 225.586 1234.68 245.436 1254.92 253.27C1269.78 259.033 1263.13 276.131 1254.38 290.01C1275.68 289.496 1293.1 292.86 1309.62 280.45C1328.09 266.587 1325.78 293.895 1337.16 296.399C1339.56 286.274 1329.66 270.544 1345.41 266.932C1357.34 264.196 1357.31 280.562 1364.94 286.47C1355.25 273.532 1349.14 259.326 1350.07 242.799C1350.39 236.956 1352.08 231.505 1358.24 230.236C1365.63 228.711 1367.59 235.318 1368.26 240.294C1370.69 258.226 1382.57 269.071 1395.83 278.983C1409.36 289.114 1409.8 310.681 1431.18 315.562C1438.15 317.152 1442.63 333.888 1430.41 343.012C1428.13 343.888 1426.64 347.539 1423.35 345.083C1428.05 348.342 1429.4 342.145 1432.83 341.736C1441.52 337.907 1447.31 331.461 1451.44 322.921C1454.99 315.571 1460.43 311.354 1468.58 317.848C1471.23 340.828 1467.65 360.888 1443.7 371.473C1393.68 376.762 1354.34 349.166 1315.69 327.373C1303.87 332.678 1322.03 356.462 1297.87 348.837C1295.48 348.082 1292.42 346.485 1294.86 350.129C1303.92 363.655 1290.88 384.58 1311.85 394.783C1323.06 400.233 1317.26 414.553 1318.66 424.988C1319.14 428.748 1319.32 432.541 1319.19 436.33C1319.17 438.867 1318.94 441.379 1318.69 443.892C1320.56 467.395 1317.38 489.629 1302.32 508.878C1298.2 513.799 1293.59 518.261 1289.1 522.844C1281.41 529.507 1275.13 538.649 1263.17 538.024C1259.71 536.966 1256.55 535.082 1253.98 532.533C1238.48 518.269 1234.29 527.203 1233.42 542.623C1233.17 548.962 1233.41 555.311 1234.13 561.614C1245.49 584.523 1239.28 612.2 1254.33 634.298C1259.05 641.249 1253.33 645.335 1246.9 648.398C1227.27 657.75 1195.27 646.102 1185.78 624.967C1181.94 616.435 1179.33 606.466 1167.87 608.929C1156.47 611.377 1153.32 621.644 1153.77 632.183C1154.27 643.79 1157.58 655.517 1150.26 666.265C1108.81 666.79 1067.95 660.815 1026.86 656.497C996.483 653.318 965.548 655.429 934.87 655.293C932.229 655.277 927.718 655.397 927.22 656.682C916.958 683.075 894.294 667.72 877.498 671.782C875.759 671.566 874.005 671.509 872.256 671.614C867.777 666.653 860.384 671.014 855.777 666.46C786.488 656.162 719.303 634.642 649.348 627.939C644.694 627.497 640.511 626.421 637.344 622.753Z" fill="#00BD6A"/>
<path d="M-0.751465 120.74C-0.462708 125.356 0.356262 129.971 3.93604 133.142C13.095 141.249 17.1646 149.642 9.28204 161.364C3.7193 169.64 5.48553 173.79 16.386 178.831C33.756 186.874 36.678 206.837 42.6263 223.469C44.3115 228.189 40.9485 234.626 47.2013 237.644C55.7738 239.313 51.897 225.298 61.0156 227.554C68.2073 234.192 61.995 245.189 68.601 252.349C76.1302 260.504 75.2393 265.866 63.5198 269.39C55.0591 271.94 53.5583 278.829 57.8445 286.904C65.085 300.55 68.7046 315.521 72.3495 330.37C97.3778 324.719 97.3778 324.719 82.6883 299.41C89.9768 293.485 105.477 295.484 104.329 279.888C104.072 276.404 108.784 275.216 112.886 276.138C127.109 279.341 138.564 285.096 138.692 302.145C133.427 308.438 125.047 305.693 118.742 309.755C104.976 318.605 99.036 336.46 107.248 350.855C113.063 361.092 119.6 370.901 126.809 380.209C134.475 390.042 147.318 391.909 159.23 383.973C165.17 380.016 168.18 380.216 173.005 384.439C181.48 391.872 185.535 401.993 191.097 411.321C197.922 422.783 201.773 438.749 222.578 431.3C227.266 429.631 240.928 434.375 244.323 438.894C258.348 457.613 268.524 441.594 279.842 436.992C282.997 435.707 285.156 432.112 288.017 429.896C298.508 421.765 307.49 419.927 318.536 431.237C335.681 448.775 337.142 448.487 353.951 430.354C361.901 421.781 371.481 418.523 381.476 414.212C392.039 409.668 398.003 413.152 405.067 420.512C421.136 437.256 432.31 434.896 441.244 412.22C445.907 400.388 456.719 394.937 464.119 386.1C469.922 379.165 495.866 389.118 496.813 400.886C498.523 422.125 508.051 413.592 517.813 409.82C521.113 408.551 524.435 406.191 528.071 408.495C531.274 410.52 533.586 413.616 532.96 417.477C532.574 419.837 529.885 424.002 529.412 423.852C511.359 417.792 499.238 431.59 484.541 436.655C479.621 438.357 473.816 437.498 468.367 437.811C463.847 447.636 484.252 452.757 472.364 463.836C465.718 470.033 465.598 485.035 446.165 473.156C471.14 505.424 472.733 506.234 503.717 505.207C506.792 514.783 497.28 521.566 497.328 529.85C501.944 538.792 514.819 524.648 517.128 537.708C518.011 542.677 522.947 548.006 517.449 552.823C511.212 558.298 507.993 553.04 504.791 548.504C500.48 542.404 495.311 542.573 488.175 543.977C471.728 547.212 455.931 555.929 437.886 548.528C429.602 545.133 423.767 555.175 416.768 558.878C408.829 563.078 401.564 571.545 392.222 566.873C377.204 559.368 365.99 567.307 354.166 573.527C344.71 578.504 335.712 584.363 326.513 589.83C321.722 593.619 250.531 622.339 244.286 623.006C214.061 612.827 183.722 619.556 153.397 622.267C147.802 622.765 142.304 623.76 138.707 628.166C117.861 653.704 87.9938 653.142 59.442 654.932C37.8255 656.281 16.0485 655.028 -5.66394 654.932C-8.97144 652.163 -14.0122 653.118 -17.0062 649.667L-16.9312 649.699C-42.4312 634.664 -69.9412 628.741 -99.4882 629.974C-112.66 630.52 -126.659 632.309 -138.258 622.838C-146.47 610.463 -145.418 597.2 -141.974 583.747C-132.631 566.601 -116.48 575.519 -103.084 574.043C-107.257 528.185 -100.178 524.629 -39.9517 545.081C-61.689 514.234 -34.2285 501.158 -20.6017 484.214C-11.7885 473.257 0.862549 476.459 10.3906 486.437C17.9116 494.328 24.5903 502.973 36.213 505.349C43.959 506.93 51.1755 517.274 58.512 511.73C67.362 505.036 64.4198 492.859 62.1323 483.556C58.095 467.149 54.3781 451.809 33.051 445.396C0.766541 435.692 -13.1197 397.025 4.14606 367.816C15.6488 348.367 8.97003 346.023 -9.34723 343.615C-36.5182 340.043 -65.2305 290.74 -57.5407 265.946C-54.864 257.286 -65.2957 254.903 -69.864 249.966C-99.3712 218.108 -133.999 191.426 -162.703 158.644C-163.849 156.082 -164.653 153.381 -165.095 150.609C-168.145 126.047 -155.014 114.793 -132.538 114.167C-105.477 113.398 -78.5049 110.705 -51.8264 106.107C-33.012 102.897 -16.926 112.794 -0.751465 120.74Z" fill="#00BD6A"/>
<path d="M-158.77 158.837C-147.676 170.115 -129.64 174.212 -124.711 192.029C-124.165 194.019 -120.698 196.564 -118.587 196.556C-101.016 196.523 -92.037 203.515 -90.4125 222.419C-89.7375 230.261 -80.1705 238.319 -71.373 240.367C-57.639 243.562 -56.5792 262.802 -40.686 262.717C-38.9925 262.709 -39.5782 269.435 -43.1662 271.402C-47.8455 273.962 -53.4885 266.273 -59.22 273.818C-52.2127 281.572 -40.4287 287.881 -46.425 302.441C-48.4957 307.474 -41.8815 311.768 -37.425 314.771C-32.1997 318.296 -25.3762 320.462 -23.691 327.18C-20.6565 339.317 -12.8227 340.898 -3.06973 336.949C9.93377 331.691 15.111 340.448 20.3768 349.046C23.3948 353.974 23.106 356.96 17.214 361.808C2.22002 374.146 -2.86123 391.46 5.81403 409.424C13.9373 426.236 22.398 444.98 47.1848 440.75C51.1095 440.075 55.0598 440.638 56.4315 444.323C64.8923 466.926 74.8538 489.29 69.8048 514.534C67.8143 524.455 60.7343 525.667 53.4135 523.05C42.3135 519.093 35.385 504.532 19.7565 510.4C18.4718 510.881 13.431 498.568 8.74352 493.479C3.67052 487.988 -1.27423 477.923 -10.89 484.168C-16.815 488.013 -29.472 489.875 -21.09 503.729C-17.502 509.661 -25.365 512.928 -31.0192 511.604C-48.1942 507.575 -44.946 516.581 -40.6432 526.125C-36.5977 535.107 -31.8135 543.8 -31.9582 554.059C-37.6657 559.333 -43.011 556.084 -46.11 552.044C-54.6907 540.863 -70.3755 548.047 -80.3047 536.721C-86.1165 530.099 -97.3537 540.542 -98.9797 552.719C-100.521 564.237 -90.6157 572.618 -91.683 586.536C-106.192 580.226 -122.045 577.633 -137.808 578.991C-148.7 572.208 -157.876 581.15 -167.764 582.323C-170.494 582.427 -176.153 578.478 -173.472 586.561C-176.485 600.311 -188.404 606.98 -196.785 616.436C-212.365 607.839 -200.453 595.831 -200.164 587.611C-229.366 567.03 -256.85 548.873 -263.111 510.488C-267.47 483.767 -283.115 460.385 -294.601 435.911C-296.872 431.063 -300.982 427.073 -301.255 421.294C-293.108 401.002 -293.686 377.402 -278.033 359.952C-269.629 361.574 -265.792 356.228 -262.637 349.854C-261.762 349.062 -260.671 348.549 -259.503 348.38C-258.335 348.211 -257.143 348.395 -256.079 348.907C-251.849 350.97 -245.821 356.645 -245.476 346.523C-245.122 335.948 -247.707 325.298 -244.673 314.723C-240.949 303.798 -243.043 290.273 -230.683 283.233C-215.174 282.88 -221.788 301.462 -210.158 306.391C-196.231 286.532 -183.371 266.69 -187.207 240.249C-188.62 230.504 -187.866 220.471 -187.32 210.574C-187.02 205.148 -185.771 195.475 -183.411 195.708C-151.256 198.86 -172.046 167.45 -158.77 158.837Z" fill="#00BD6A"/>
<path d="M768.412 126.207C767.183 137.573 761.878 147.004 753.586 154.477C743.168 163.863 739.563 173.413 743.97 188.143C749.027 205.031 739.635 214.174 722.803 213.475C714.412 213.13 708.491 210.618 708.611 201.114C708.756 189.523 703.972 182.463 692.076 179.883C684.716 178.294 679.827 172.048 675.444 166.374C669.737 158.997 664.391 153.121 653.643 153.001C641.242 152.865 635.502 145.633 639.805 132.918C641.266 128.608 643.433 124.409 641.651 119.834C640.43 116.704 636.907 111.149 634.715 114.769C625.565 129.82 616.542 119.313 607.946 115.452C603.234 113.341 600.221 114.136 595.64 115.708C573.117 123.439 572.836 122.973 570.797 99.9584C570.677 98.5454 568.727 97.2937 567.602 95.9369C561.47 96.2744 562.241 102.094 559.824 105.462C551.649 116.836 542.534 119.187 532.846 109.804C524.096 101.329 518.807 98.4944 505.354 103.174C495.842 106.481 483.272 104.041 471.545 108.673C458.795 113.706 444.454 97.9409 443.001 80.1127C442.865 78.4627 444.501 76.7092 444.558 74.9834C444.606 73.4902 443.587 71.9654 442.447 68.8507C435.761 76.5082 429.697 83.259 418.334 83.2755C406.896 83.2837 404.054 95.7577 398.131 103.311C388.282 115.857 383.112 117.808 372.686 106.249C365.092 97.8284 360.5 94.9627 350.909 102.268C345.723 106.209 338.933 104.194 332.728 101.553C314.878 93.9517 314.796 94.1362 301.206 104.836C296.663 93.2204 287.207 83.8612 286.782 70.9537C281.958 69.7822 279.782 72.9285 276.893 74.8387C260.735 85.5067 259.306 84.84 255.443 65.7847C254.728 62.2529 253.693 58.7932 252.882 55.2772C252.08 51.8339 251.373 48.366 249.912 41.5589C268.823 48.0367 280.703 30.8429 298.604 32.9939C316.504 35.1449 334.869 33.4597 353.026 33.4357C359.375 33.4192 365.901 33.8692 370.172 27.6479C375.758 21.6202 381.224 21.5729 386.579 27.9607C403.436 39.7522 421.504 27.3607 438.986 30.4732C449.494 32.3354 460.724 31.8697 471.399 30.5857C490.503 28.2899 502.808 34.1257 506.292 54.3292C507.047 58.7114 510.169 62.4292 513.613 65.5042C512.36 62.0925 513.131 67.1414 516.029 64.9507C506.381 55.599 507.656 47.7089 519.779 42.3389C526.256 39.465 531.939 43.3184 537.358 46.7699C539.35 48.0935 541.752 48.6548 544.124 48.3509C532.999 38.1569 533.954 31.7834 550.056 30.9007C565.259 30.0757 580.382 31.7677 595.513 33.2767C604.631 48.3674 614.825 60.3112 635.327 60.4717C650.602 60.5999 660.499 68.9467 656.397 87.2467C653.226 101.398 653.78 113.047 674.627 107.065C685.945 103.822 690.665 112.275 692.454 122.22C693.729 129.345 693.279 136.612 693.883 143.788C694.525 151.326 696.491 158.269 704.683 160.822C712.277 163.198 719.147 161.103 724.284 155.179C731.942 146.341 739.872 137.728 746.184 127.75C752.623 117.562 760.04 112.77 768.412 126.207Z" fill="#00BD6A"/>
<path d="M1575.89 311.661C1575.84 326.085 1575.01 340.325 1579.27 354.693C1582.57 365.851 1581.47 377.754 1577.73 389.434C1574.23 400.343 1571.6 410.489 1557.02 409.814C1552.4 409.598 1548.41 412.247 1545.13 415.594C1540.54 420.274 1536.42 425.547 1538.81 432.362C1540.81 438.062 1546.56 439.009 1552.05 439.996C1571.04 443.423 1574.5 449.572 1566.22 466.115C1563.45 471.67 1559.16 476.55 1555.14 481.391C1550.69 486.752 1548.88 491.705 1552.89 498.464C1564.46 517.904 1561.07 538.004 1554.47 558.071C1537.27 554.226 1528.17 566.058 1529.09 578.628C1529.69 586.832 1531.51 600.596 1542.96 606.241C1543.73 617.045 1541.09 626.557 1532.51 633.821C1515.6 626.388 1506.53 605.502 1483.79 606.896C1478.61 607.209 1478.46 596.696 1480.65 590.24C1488.17 567.982 1486.6 544.246 1491.68 521.615C1488.42 506.26 1475.83 494.035 1478.82 476.111C1480.2 467.779 1468.41 465.194 1462.15 460.474C1458.74 458.768 1455.62 456.527 1452.91 453.836C1446.32 443.81 1432.06 436.377 1439.65 421.211C1445.13 410.294 1450.66 395.324 1466.75 410.561C1473.12 416.589 1476.5 415.128 1481.68 408.578C1504.14 380.162 1505.09 357.759 1483.9 330.926C1464.12 305.882 1461.16 260.738 1476.8 232.403C1484.87 217.778 1495.4 214.769 1510.75 220.748C1544.5 233.897 1551.17 228.473 1548.76 191.41C1548.44 187.796 1548.68 184.154 1549.47 180.614C1550.33 178.221 1551.75 176.069 1553.61 174.337C1565.39 176.801 1578.14 174.602 1589.05 181.569C1591.7 186.417 1591.66 191.394 1589.8 196.467C1580.68 205.763 1571.68 213.412 1568.54 228.631C1564.7 247.245 1540.9 255.088 1535.02 274.898C1533.95 278.471 1519.66 273.542 1526.74 285.213C1530.58 291.546 1530.8 303.539 1542.47 299.597C1557.55 294.507 1566.36 303.249 1575.89 311.661Z" fill="#00BD6A"/>
<path d="M1537.31 66.4144C1542.5 73.9999 1549.66 79.3617 1557 84.7317C1568.13 92.8699 1574.54 102.712 1577.07 117.859C1579.59 133.029 1587.73 147.519 1588.05 163.716C1586.97 164.399 1585.91 165.081 1584.84 165.779C1570.84 162.191 1560.11 155.665 1559.3 139.178C1558.61 124.978 1545 120.053 1537.54 110.056C1563.7 126.969 1562.77 150.143 1553.99 175.275L1553.88 175.307C1545.53 179.77 1546.4 189.234 1542.63 196.177C1539.36 202.206 1535.3 206.565 1527.81 205.408C1519.19 204.095 1519.3 197.43 1519.31 190.96C1519.31 186.441 1519.84 181.914 1519.34 177.411C1518.94 173.702 1517.7 170.114 1513.17 170.235C1509.14 170.347 1507.07 172.515 1506.78 177.114C1505.72 194.289 1492.4 198.923 1479.01 201.138C1470.5 202.543 1459.9 197.245 1466.76 187.461C1477.81 171.728 1466.23 166.414 1457.49 159.519C1446.17 150.585 1432.66 143.634 1436.04 125.388C1422.31 126.897 1420.93 136.674 1417.75 144.717C1410.54 162.978 1395.42 162.786 1379.4 162.192C1362.92 161.583 1348.07 159.942 1346.77 138.738C1346.48 128.142 1351.13 118.839 1359.24 113.549C1381.07 99.2854 1371.26 90.4152 1355.22 81.6582C1354.48 79.7785 1354.15 77.7626 1354.25 75.7456C1354.36 73.7285 1354.89 71.7569 1355.82 69.9627C1366.39 56.9749 1381.28 58.0264 1394.93 60.2659C1409.41 62.6502 1420.84 59.7042 1430.97 49.6624C1444.9 49.6782 1457.29 37.6384 1472.09 44.3809C1476.17 46.8454 1477.23 50.8504 1477.63 55.2012C1487.08 69.9709 1499.6 83.7927 1492.48 103.635C1507.08 62.6899 1507.8 62.0959 1537.31 66.4144Z" fill="#00BD6A"/>
<path d="M1095.76 60.6354C1111.67 64.1911 1127.48 66.0354 1143.4 60.2904C1149.48 58.1071 1154.99 55.4746 1159.9 51.2199C1187.98 26.9709 1224.83 40.0861 1232.21 76.8496C1257.46 79.6029 1282.69 81.2161 1307.79 75.3084C1309.82 76.8514 1311.34 78.9672 1312.16 81.3834C1312.12 101.081 1299.52 111.195 1282.64 113.633C1258.97 117.061 1258.88 135.158 1253.69 151.358C1273.08 143.123 1290.7 133.161 1310.24 127.598C1312.83 127.025 1315.48 126.791 1318.13 126.9C1320.8 127.207 1323.41 127.91 1325.86 128.987C1331.78 132.343 1336.53 136.998 1340.71 142.296C1348.91 171.233 1362.98 193.733 1394.19 204.408C1407.37 208.925 1420.06 221.093 1419.66 239.186C1415.89 245.261 1407.97 247.751 1406.03 255.593C1404.35 262.392 1403.65 271.045 1393.41 270.06C1384.33 269.183 1379.48 262.472 1375.79 254.855C1374.21 251.579 1376.25 255.665 1374.86 252.305C1361.14 219.06 1361.14 219.06 1337.79 248.072C1323.43 209.302 1286.3 216.435 1258.57 212.473C1215.79 206.348 1214.82 210.723 1202.38 168.638C1199.57 157.336 1207.44 149.798 1212.03 141.098C1223.03 128.359 1226.78 114.111 1220.98 97.8729C1219.53 87.4696 1216.34 79.7559 1203.65 86.3866C1197.27 89.7181 1190.84 92.9529 1184.39 96.1554C1163.75 106.406 1143.68 116.833 1125.97 90.4726C1122.52 85.3351 1113.43 83.9146 1107.97 79.0906C1105.1 76.8354 1102.31 74.4751 1099.44 72.2116C1097.51 70.7439 1095.81 69.0025 1094.38 67.0426C1093.91 65.9669 1093.78 64.7668 1094.03 63.6153C1094.27 62.4638 1094.88 61.4203 1095.76 60.6354Z" fill="#00BD6A"/>
<path d="M1095.76 60.6354V66.0781C1079.4 92.3904 1058.08 102.31 1032.12 93.3099C1010.67 85.8766 987.795 85.7484 966.436 77.9866C947.99 71.2794 944.017 87.4696 937.523 98.8599C930.383 98.7474 926.783 95.0146 926.43 87.9751C914.847 73.3336 916.709 55.8001 915.866 38.8584C916.147 35.2704 915.941 31.0164 919.631 29.2981C935.821 21.7291 953.103 16.7731 966.475 3.33911C972.095 -2.31213 982.048 0.0316086 989.89 2.76911C1018.85 12.8941 1046.24 26.3191 1070.91 44.5336C1078.94 50.4579 1086.73 56.4099 1095.76 60.6354Z" fill="#00BD6A"/>
<path d="M-0.751442 120.741C-5.68794 122.363 -11.1059 127.829 -15.7514 123.302C-34.0927 105.466 -56.0227 113.581 -75.5197 116.784C-92.6197 119.583 -109.387 120.333 -126.405 120.726C-155.751 121.408 -157.927 123.535 -159.034 153.636C-163.529 155.169 -165.954 152.528 -168.057 149.211C-170.674 143.736 -171.717 137.564 -175.417 132.561C-199.843 113.682 -198.648 102.42 -170.537 90.2666C-161.419 86.3336 -151.834 83.5481 -143.334 78.1458C-134.259 72.3708 -126.189 73.0571 -120.321 82.9863C-112.077 96.9656 -101.682 104.15 -84.3757 98.1326C-67.3267 92.2008 -65.4884 78.9243 -64.6694 64.2266C-64.5892 62.8136 -62.2537 61.6818 -60.7439 60.6551C-42.8519 60.8561 -26.8064 52.6443 -9.81294 48.8051C6.40131 45.1451 21.5326 44.9201 37.0966 49.6556C41.7038 44.9996 49.4341 49.7201 53.7203 44.1056L53.6003 44.1858C62.8553 41.8661 74.9678 35.7656 77.1833 50.6958C78.7891 61.5161 67.8001 64.5183 58.2158 65.7303C43.8961 67.5303 29.2148 67.1913 43.2376 89.4258C50.4698 100.888 36.9683 104.966 28.0126 104.259C13.8818 103.158 6.20031 110.684 -0.751442 120.741Z" fill="#00BD6A"/>
<path d="M-0.75145 120.741C1.21506 96.4675 1.19856 96.6205 25.1836 98.587C30.2168 98.9965 36.1726 100.634 40.2023 93.9955C38.3086 85.7162 25.2878 87.4217 24.4208 77.9162C24.2603 76.174 23.5298 74.4805 22.4386 70.4672C34.6636 66.229 43.2886 52.3345 60.2453 59.6312C65.5111 61.8947 71.8441 58.2265 72.8236 52.2625C74.1563 44.1235 66.9076 45.0707 61.7708 44.5247C59.0708 44.2435 56.3288 44.2922 53.5958 44.1955C76.9778 34.2745 100.433 39.2507 123.871 43.8745C136.232 43.3847 147.582 36.1442 162.97 37.9022C153.686 50.947 147.827 64.8497 129.059 57.6662C124.17 55.7957 120.068 57.4817 116.77 60.7412C111.248 66.1997 98.5246 67.2347 100.515 76.5782C102.739 87.0212 114.257 82.3015 121.562 82.237C133.546 82.1245 144.711 84.6047 155.957 88.087C160.837 89.6042 165.22 92.0845 171.368 90.3827C193.741 84.1862 197.81 88.3847 192.376 110.37C191.951 112.095 190.947 113.677 190.208 115.32C179.565 117.441 174.227 109.728 167.734 102.311C160.686 105.659 162.347 115.299 155.541 118.502C147.819 122.138 141.734 116.752 134.879 116.166C119.114 114.833 102.29 114.891 87.6811 117.298C57.9818 122.186 28.6433 118.935 -0.75145 120.741Z" fill="#00BD6A"/>
<path d="M593.939 33.6484C582.539 42.0207 571.182 31.1524 559.865 33.5839C553.756 34.9002 542.783 29.5624 543.008 40.0939C543.192 48.5689 554.326 39.0342 559.888 45.8892C549.284 50.9944 540.206 58.1299 528.414 48.0327C523.421 43.7577 517.539 45.7692 514.985 51.5727C512.353 57.5689 516.455 59.1664 521.897 58.9332C528.23 58.6767 527.283 62.6832 525.019 65.8842C521.399 71.0217 517.069 75.6529 510.025 84.1377C510.571 62.5377 494.966 53.0337 492.414 37.2522C491.772 33.2629 484.724 33.3027 480.245 33.5922C455.057 35.1979 429.545 29.5422 404.608 37.4367C396.139 40.1179 388.008 39.8127 386.579 27.9627C439.3 27.8667 492.037 27.2479 544.754 27.8502C581.237 28.2754 616.908 23.3232 652.139 14.7102C660.024 12.7188 668.126 11.7079 676.259 11.7004C685.409 11.7244 699.641 26.0442 701.32 3.19994C701.36 2.59019 706.586 1.3137 708.793 2.08395C730.088 9.50069 752.178 4.0107 773.747 6.44295C801.137 22.1059 829.143 35.0367 862.134 32.5084C874.214 31.5777 882.209 39.3874 885.671 50.9299C889.016 62.0877 888.96 72.4107 876.414 78.3184C857.647 61.1652 833.55 65.7244 811.364 62.7064C802.879 61.5507 795.759 65.4064 789.98 71.8654C784.205 78.3034 779.071 87.8149 768.251 79.2664C759.296 72.1857 752.029 63.0747 757.346 51.5239C769.772 24.4969 750.563 33.8989 738.659 34.5312C698.171 38.2317 657.41 31.7562 617.067 38.6329C608.696 40.0782 600.761 39.3957 593.939 33.6484Z" fill="#00BD6A"/>
<path d="M1308.38 77.0426C1305.86 77.8676 1301.7 78.0619 1301.11 79.6189C1295.34 94.8379 1287.34 95.3689 1274.97 86.0006C1266.56 79.6354 1256.34 82.2199 1246.83 85.9121C1238.31 89.2189 1232.96 86.5459 1232.22 76.8499C1235.78 76.5206 1241.21 77.5646 1242.62 75.6461C1256.45 56.9269 1278.37 56.2369 1297.79 51.0191C1316.17 46.0744 1334.37 41.6036 1350.16 30.4219C1352.22 28.9691 1355.77 26.2219 1356.45 26.7694C1372.93 40.0301 1387.14 26.1274 1402.2 23.2699C1412.71 21.2711 1423.9 24.6746 1430.19 30.4699C1440.55 40.0226 1449.95 43.4741 1463.08 39.5089C1466.56 38.4574 1469.81 41.3636 1472.09 44.3809C1458.57 45.2719 1445.69 48.4136 1433.85 55.2176C1425.53 57.4174 1416.63 66.5914 1408.96 60.2749C1389.08 43.8679 1374.38 54.7121 1355.58 63.4451C1341.5 69.9791 1323.49 69.8344 1308.38 77.0426Z" fill="#00BD6A"/>
<path d="M872.146 77.2032C885.567 70.5087 882.188 60.812 878.359 49.6385C874.819 39.2885 867.74 38.7215 859.303 38.8827C858.396 38.9067 857.48 38.7942 856.589 38.8745C823.518 42.005 794.549 34.652 773.752 6.44598C797.801 9.88923 822.114 11.0532 846.002 16.1667C859.307 18.8586 871.829 24.5284 882.629 32.7507C892.304 40.0955 902.536 49.2785 915.869 38.8595C924.68 54.0935 927.329 70.6527 926.43 87.9777C918.636 93.9395 921.951 102.552 921.132 110.178C903.561 101.028 874.673 108.701 872.146 77.2032Z" fill="#00BD6A"/>
<path d="M53.7188 44.1074C49.8338 50.9144 43.2937 49.7661 37.095 49.6536C41.4187 44.1554 47.5463 44.0511 53.7188 44.1074Z" fill="#00BD6A"/>
<path d="M872.144 77.203C880.299 88.7298 886.785 101.718 905.594 97.5513C909.644 96.6513 915.892 105.707 921.134 110.178C923.267 117.362 935.332 121.905 928.396 131.151C922.729 138.705 914.501 142.365 904.564 137.148C894.129 131.673 889.553 136.594 888.398 146.964C887.996 150.528 886.961 154.028 886.568 157.592C883.742 183.078 884.618 184.161 910.833 186.917C903.456 201.678 882.017 209.042 888.398 229.829C882.353 231.579 874.792 231.611 870.53 235.379C853.817 250.14 835.364 240.998 818.255 239.328C799.76 237.514 789.182 205.599 802.73 192.753C814.088 181.981 805.724 178.602 798.58 176.218C788.177 172.743 776.931 171.811 760.002 168.665C777.725 159.594 786.386 150.677 787.037 134.711C787.398 125.721 800.819 129.935 807.137 124.123C815.987 115.968 818.053 109.273 809.882 102.378C806.005 99.1113 800.041 98.0598 798.283 102.796C794.333 113.408 788.217 115.414 777.583 113.978C772.59 113.303 770.977 121.572 768.408 126.211C763.616 125.071 755.252 119.091 754.618 125.472C752.86 143.148 734.254 147.273 729.052 162.324C724.452 175.616 710.341 169.291 700.331 169.018C690.522 168.745 686.927 161.096 686.741 151.993C686.557 142.963 686.666 133.932 686.501 124.902C686.412 119.524 686.854 113.427 680.32 111.361C675.311 109.786 672.052 113.175 669.339 117.141C667.839 119.332 666 121.684 663.744 122.832C661.625 123.907 656.777 124.284 656.504 123.61C652.361 113.36 643.267 100.95 646.125 92.8345C654.056 70.3113 654.064 67.5415 630.087 66.2095C603.357 64.7163 599.424 61.1763 593.937 33.652C601.169 33.588 608.404 33.5185 615.642 33.4435C648.584 27.6685 681.816 32.4805 714.863 30.7225C725.438 30.1608 736.415 33.5958 746.569 27.9775C762.149 15.2065 767.31 33.0025 778.347 36.9273C755.022 56.3523 754.997 58.03 777.577 79.1005C786.166 53.5188 805.037 50.7813 827.03 57.733C834.519 60.1008 840.692 58.4958 847.868 57.133C862.431 54.3588 867.279 59.1348 872.144 77.203Z" fill="#00BD6A"/>
<path d="M190.209 115.322C236.757 111.413 281.893 121.078 327.429 128.43C365.685 134.595 404.086 139.235 443.434 136.818C459.934 135.799 477.709 145.214 493.795 152.375C500.16 155.2 504.575 156.589 511.069 154.727C527.789 149.935 543.257 157.202 558.741 161.493C565.499 163.368 571.496 169.737 571.006 177.884C570.468 186.794 560.531 192.059 555.771 190.101C542.503 184.643 535.68 205.626 522.218 196.217C518.807 193.841 517.523 199.926 517.538 203.369C517.554 209.767 517.306 216.59 525.702 218.387C546.516 222.827 564.038 215.642 579.94 202.807C587.421 196.763 592.015 186.287 605.674 186.953C607.415 195.438 598.947 198.52 596.218 204.155C594.54 207.623 593.786 211.163 595.793 214.43C598.369 218.612 601.772 216.349 605.243 215.185C625.902 208.266 634.74 216.053 635.302 241.522C628.094 238.648 628.013 225.524 621.078 226.929C608.508 229.479 595.625 227.989 583.488 231.328C576.994 233.118 578.142 239.475 579.755 245.134C582.228 253.827 591.161 259.242 591.98 272.233C570.773 260.433 552.407 241.955 524.819 254.397C532.469 262.97 545.031 258.522 551.06 266.582C554.503 271.181 563.585 274.673 557 281.736C552.215 286.874 547.239 282.306 544.068 277.289C542.085 274.139 539.678 271.157 535.736 271.197C514.497 271.398 506.198 257.19 501.14 239.892C498.242 230.003 495.979 221.567 483.215 230.485C478.279 233.935 472.7 229.931 467.563 228.855C456.036 226.431 453.604 218.974 458.003 208.83C459.776 204.728 462.947 201.18 464.432 197.006C466.832 190.264 461.8 186.563 456.751 184.974C449.607 182.719 452.97 199.142 444.125 193.555C440.192 191.066 439.475 183.955 436.114 179.941C432.638 175.799 427.653 176.473 424.714 181.057C420.227 188.048 407.624 184.075 406.508 194.903C406.364 196.316 408.884 199.294 408.956 199.253C420.764 193.016 425.606 219.728 439.193 205.667C440.895 203.9 444.732 205.755 445.19 208.661C445.559 211.052 445.109 214.922 443.544 216.021C437.646 220.195 431.374 223.815 424.809 226.833C418.644 229.627 404.493 226.44 416.75 240.487C418.91 242.962 415.089 247.197 411.605 248.737C407.519 250.551 404.822 248.143 402.719 244.884C402.23 244.121 401.459 243.319 401.427 242.516C400.311 216.629 380.758 211.916 361.108 207.311C355.69 206.036 354.55 201.732 353.828 197.117V197.108C348.947 193.133 343.77 189.467 339.251 185.116C333.64 179.716 328.784 174.849 321.487 183.158C315.041 190.494 316.687 196.049 323.855 201.21C326.76 203.305 329.93 205.175 328.791 210.088C300.849 209.173 305.826 186.818 303.741 169.376C293.001 173.638 288.008 178.895 292.327 190.439C295.433 198.731 294.887 207.929 291.107 216.464C266.357 208.718 262.997 206.114 268.27 185.135C272.861 166.835 263.197 158.75 252.208 148.484C238.667 172.436 238.667 172.436 253.99 190.737C250.765 199.093 241.067 197.921 235.649 203.765C232.454 191.427 229.54 180.197 226.634 168.965C212.09 170.201 207.57 196.096 188.049 184.585C177.277 178.235 178.545 168.523 180.897 156.835C183.169 160.319 184.63 162.43 185.962 164.621C189.743 170.801 195.017 170.047 199.889 166.844C205.058 163.441 206.808 158.24 202.577 152.95C193.739 141.873 188.627 129.736 190.208 115.32L190.209 115.322Z" fill="#00BD6A"/>
<path d="M1499.34 518.924C1491.19 522.27 1484.93 534.72 1473.8 523.995C1471.85 522.12 1468.16 522.51 1468.36 525.905C1469.96 552.164 1439.53 543.751 1431.56 559.934C1430.21 562.679 1423.89 561.106 1422.32 557.895C1408.66 529.914 1381.65 533.333 1357.55 529.842C1344.99 519.984 1335.16 503.224 1314.55 516.927C1308.83 520.731 1300.41 516.437 1297.49 507.993C1310.46 488.07 1313.41 465.635 1313.88 442.573C1315.28 441.385 1315.77 440.181 1315.33 438.953C1314.9 437.724 1314.46 437.099 1314 437.099C1313.97 433.471 1313.94 429.843 1313.91 426.214C1311.14 405.32 1331.51 401.122 1342.11 395.816C1353.61 390.053 1354.04 408.804 1360.1 418.916C1363.14 412.631 1369.4 409.637 1375.26 412.51C1403.58 426.437 1412.03 403.552 1420.69 386.343C1425.45 376.911 1429.43 369.598 1439.37 366.259C1452.96 365.884 1456.59 355.15 1459.97 345.245C1463.07 336.159 1464.38 326.47 1466.48 317.055C1446.29 294.105 1425.56 271.502 1417.68 240.678C1409.6 223.148 1398.01 208.715 1378.81 203.313C1355.24 196.675 1343.07 181.737 1340.81 157.638C1340.32 152.493 1337.51 147.573 1335.77 142.54C1337.6 130.194 1344.64 133.149 1351.98 137.025C1353.54 148.921 1356.5 158.321 1372.37 154.091C1377.01 152.855 1383 157.466 1388.05 156.844C1399.36 155.48 1412.27 155.4 1412.25 138.157C1412.23 119.639 1429.14 119.663 1439.58 112.882C1441.73 114.857 1444.18 116.47 1443.97 117C1435.89 136.955 1447.71 146.314 1463 154.614C1471 158.956 1478.01 165.362 1481.51 173.958C1483.28 178.317 1485.72 184.698 1478.38 187.749C1475.04 189.129 1467.19 186.328 1470.89 194.09C1472.87 198.24 1481.58 198.168 1482.79 195.398C1486.62 186.569 1509.81 190.983 1499.3 171.687C1498.82 170.82 1512.8 162.071 1520.79 156.468C1531.76 170.668 1524.2 186.449 1525.66 202.037C1540.96 200.038 1539.22 189.146 1539.53 179.762C1540.06 164.162 1548.45 174.662 1553.87 175.307C1554.07 182.539 1553.17 189.94 1556.51 196.731C1564.83 213.606 1552.12 224.079 1544.08 235.404C1539.44 241.938 1531.52 242.034 1524.43 237.949C1522.14 236.633 1520.67 233.943 1518.45 232.482C1493.61 216.147 1479.49 222.24 1478.02 251.723C1477.25 267.23 1469.82 281.567 1472 297.3C1472.84 303.432 1470.01 312.3 1476.32 314.83C1497.9 323.467 1495.69 348.816 1510.97 361.571C1515.15 365.063 1513.79 369.349 1510.78 373.531C1500.53 387.827 1490.02 401.754 1486.24 419.83C1484.34 428.901 1468.89 428.796 1462.49 419.975C1460.14 416.732 1462 411.21 1457.92 408.216C1440.64 425 1440.65 425 1453.14 440.427C1456.28 444.297 1455.46 448.992 1455.82 453.447C1445.74 455.422 1432.52 447.444 1427.4 464.766C1425.09 472.608 1417.29 471.612 1412.96 464.581C1405.52 452.469 1399.6 459.573 1394.68 466.138C1387.07 476.3 1396.87 479.005 1403.03 480.273C1416.1 482.955 1412.59 495.894 1419.53 506.032C1426.51 478.347 1444.02 463.473 1466.6 453.544C1472.34 457.219 1475.34 464.644 1483.81 464.742C1490.28 464.817 1494.81 469.63 1490.11 475.056C1478.73 488.212 1485.06 497.388 1494.88 506.754C1498.26 509.982 1499.07 514.421 1499.34 518.924Z" fill="#00BD6A"/>
<path d="M1417.69 240.679C1418.47 241.104 1419.64 241.314 1420.01 241.971C1434.41 267.674 1456.34 288.73 1466.49 317.055C1461.97 317.83 1456.43 319.33 1456.71 324.271C1458 346.602 1443.04 345.005 1428.46 344.395V344.403C1436.07 333.342 1429.99 323.886 1425.24 314.262C1416.05 312.006 1410.2 320.33 1402.12 320.916C1401.39 319.607 1399.75 317.536 1400.08 317.135C1410.04 305.216 1406.04 295.591 1395.44 286.906C1394.04 285.758 1392.91 284.201 1391.38 283.294C1372.74 272.273 1360.22 257.327 1360.7 233.824C1348.51 263.259 1367.99 281.432 1385.68 301.539C1369.81 300.111 1369.81 300.111 1345.49 269.897C1335.39 283.88 1350.57 295.697 1347.23 310.368C1334.36 302.976 1316.19 303.128 1320.51 277.394C1295.88 307.639 1268.14 296.955 1241.71 294.344C1238.47 283.131 1247.32 282.809 1251.86 279.936C1260.04 274.75 1259.56 268.827 1255.83 261.393C1252.1 253.944 1248.29 252.543 1241.34 258.432C1235.7 263.199 1229.64 259.644 1230.12 253.318C1231.18 239.376 1226.61 233.163 1212.15 233.293C1202.28 233.382 1205.81 224.375 1204.67 218.764C1195.55 208.289 1193.69 195.751 1194.34 182.475C1195.77 176.439 1198.75 171.719 1205.11 169.912C1213.75 165.971 1217.52 168.588 1214.2 177.69C1211.81 184.224 1209.96 190.878 1217.03 194.21C1224.7 197.822 1229.93 212.391 1233.97 208.77C1243.55 200.181 1256.13 212.583 1263.68 201.554C1265.46 198.945 1271.56 197.043 1271.91 201.827C1273.27 220.241 1284.46 212.92 1292.96 210.143C1301.03 207.502 1306.84 209.573 1312.63 214.863C1315.21 217.215 1319.94 221.1 1321.32 220.289C1340.76 208.706 1334.11 225.531 1335.72 233.204C1336.27 235.797 1336.66 238.422 1337.39 242.563C1339.44 239.192 1340.91 237.137 1342.01 234.897C1346.72 225.321 1353.48 217.56 1364.91 219.726C1376.88 221.998 1378.73 232.776 1379.2 242.876C1379.75 254.916 1384.58 262.927 1396.78 266.66C1398.2 240.955 1398.56 240.534 1417.69 240.679Z" fill="#00BD6A"/>
<path d="M937.523 98.8597C929.753 87.9592 935.822 80.7674 943.76 73.4789C950.51 67.2824 957.206 64.8577 965.77 69.4657C989.971 82.4692 1019.21 77.8297 1043.25 91.4354C1053.65 81.5144 1076.26 95.9354 1080.18 72.6367C1081.73 63.3974 1092.23 72.3877 1095.76 66.0787L1101.16 66.3914C1102.99 68.1494 1104.85 69.8699 1106.75 71.5529C1114.03 74.7779 1118.87 82.5097 1127.84 82.7107C1129.63 82.7076 1131.4 83.0845 1133.04 83.8165C1134.67 84.5486 1136.13 85.619 1137.32 86.9572C1151.05 102.064 1156.15 103.132 1173.82 94.0769C1184.1 88.8194 1194.04 82.8952 1204.26 77.5094C1221.44 68.4697 1225.06 70.6694 1226.66 90.8137C1226.87 93.4949 1226.66 96.1994 1226.65 98.8964C1215.25 108.749 1202.18 115.154 1194.75 131.08C1181.95 158.556 1157.02 142.004 1136.7 141.205C1134.28 140.394 1132.02 139.136 1130.06 137.496C1125.34 132.824 1123.74 126.964 1123.23 120.511C1121.03 92.8417 1119.22 90.7709 1094.01 99.8737C1080.05 104.906 1062.93 101.656 1052.08 115.077C1039.58 118.077 1035.65 106.561 1027.93 101.254C1023.29 98.0594 1017.52 91.6702 1011.26 97.4017C1006.28 101.953 1009.61 107.732 1013.38 111.69C1020.89 119.548 1017.91 127.848 1012.4 133.499C1002.47 143.686 1000.49 164.699 977.96 159.113C965.69 156.067 961.028 149.149 967.977 138.139C972.248 131.364 978.91 126.13 983.606 119.557C986.897 114.957 987.876 108.921 981.206 105.999C975.418 103.454 970.321 106.074 968.218 111.915C967.086 115.065 969.205 119.629 967.693 122.366C962.178 132.384 948.845 132.287 944.368 122.093C941.153 114.761 939.739 106.63 937.523 98.8597Z" fill="#00BD6A"/>
<path d="M1439.37 366.26C1435.96 370.337 1429.1 375.025 1429.69 378.404C1433.66 401.048 1412.6 407.414 1403.25 421.154C1396.82 430.604 1388.07 430.997 1380.87 422.322C1370.32 409.624 1365.33 419.087 1359.69 427.259C1351.74 418.774 1349.75 407.801 1343.33 396.724C1340.32 406.589 1340.51 418.174 1325.55 413.861C1317.68 411.59 1317.32 421.495 1313.91 426.215C1312.6 424.007 1310.02 421.715 1310.18 419.615C1311.92 396.74 1312.04 396.65 1290.51 396.77C1286.64 396.794 1283.09 396.986 1282.31 392.299C1281.67 388.446 1282.8 384.208 1287.26 384.473C1300.32 385.235 1299.38 377.602 1293.69 371.606C1282.8 360.143 1289.51 349.931 1293.38 339.056C1299.8 337.931 1296.78 349.804 1304.36 347.066C1305.07 345.59 1306.72 343.766 1306.34 342.659C1303.97 335.869 1300.81 329.351 1298.67 322.504C1298.02 320.409 1299.11 317.045 1300.58 315.207C1301.02 314.696 1301.57 314.281 1302.18 313.989C1302.79 313.698 1303.45 313.535 1304.13 313.513C1304.8 313.49 1305.48 313.608 1306.11 313.858C1306.73 314.108 1307.3 314.485 1307.78 314.966C1320.66 329.15 1343.41 325.522 1355.36 343.494C1362.48 354.219 1379.4 354.13 1391.62 359.162C1406.07 365.112 1423.34 364.197 1439.37 366.26Z" fill="#00BD6A"/>
<path d="M1052.08 115.075C1049.57 108.597 1043.89 99.6395 1056.71 99.575C1072.61 99.4947 1086.91 95.7785 1101.06 89.15C1104.86 87.3597 1109.97 88.0745 1114.48 88.0827C1133.08 88.1202 1136.08 90.8015 1131.19 108.565C1128.28 119.112 1128.73 127.966 1133.9 137.069C1128.04 146.043 1124.92 156.654 1117.34 164.585C1110.81 155.763 1100.91 151.565 1092.15 145.65C1078.25 136.258 1065.38 125.349 1052.08 115.075Z" fill="#00BD6A"/>
<path d="M1117.34 164.584C1117.76 152.344 1115.56 138.53 1133.9 137.068L1133.86 137.197C1138 140.737 1144.17 140.022 1148.09 143.963C1165.85 161.84 1181.04 156.076 1195.09 138.971C1199.68 133.392 1204.58 127.283 1212.82 130.195C1219.05 132.403 1219.81 137.508 1216.02 142.999C1216.04 153.457 1204.09 159.053 1205.11 169.913C1203.23 173.541 1201.35 177.17 1199.47 180.798C1187.4 207.601 1183.52 208.934 1157.69 194.934C1148.17 189.781 1138.58 184.772 1128.68 180.397C1124.9 175.124 1121.12 169.853 1117.34 164.584Z" fill="#00BD6A"/>
<path d="M1128.68 180.398C1140.52 174.257 1149.31 182.637 1157.93 187.686C1181.28 201.369 1181 201.845 1199.47 180.799C1198.78 193.787 1207.16 205.538 1204.67 218.774C1198.37 224.61 1193.06 233.592 1183.4 222.242C1173.43 210.547 1162.87 200.567 1144.85 201.992C1131.28 203.057 1134.05 187.766 1128.68 180.398Z" fill="#00BD6A"/>
<path d="M1428.46 344.394C1427.25 346.762 1423.58 349.548 1423.08 348.324C1420.54 342.115 1426.6 345.831 1428.46 344.403V344.394Z" fill="#00BD6A"/>
<path d="M1351.99 137.027C1346.05 137.317 1339.63 136.167 1335.77 142.542C1333.27 141.615 1331 140.163 1329.11 138.284C1327.22 136.405 1325.76 134.143 1324.81 131.65C1312.73 117.492 1326.2 94.806 1308.43 82.542C1308.42 80.712 1308.39 78.882 1308.37 77.0437C1312.7 66.2955 1326.29 65.1877 1331.32 54.849C1333.09 51.213 1338.42 51.0442 1339.66 55.1055C1343.36 67.146 1350.03 62.0565 1355.95 58.3485C1360.46 55.515 1364.07 51.2767 1368.24 47.8335C1378.57 39.2925 1390.79 37.1655 1399.67 47.2635C1410.08 59.1022 1421.65 56.292 1433.85 55.2172C1424.86 65.7562 1416.49 73.326 1399.75 67.5922C1386.7 63.1215 1371.05 63.6667 1357.66 71.6535C1353.04 75.2655 1354.46 78.9097 1357.61 82.5622C1364.72 82.1921 1371.78 83.8723 1377.95 87.4027C1390.67 94.4902 1390.43 96.9547 1378.18 105.544C1366.75 113.565 1354.34 121.246 1351.99 137.027Z" fill="#00BD6A"/>
<path d="M1357.61 82.5645C1354.4 81.2722 1350.72 79.6665 1350.45 76.071C1350.08 71.1825 1354.61 72.1537 1357.66 71.6565C1357.64 75.292 1357.63 78.928 1357.61 82.5645Z" fill="#00BD6A"/>
<path d="M1308.43 82.5414C1316.41 78.9241 1324.51 75.3571 1324.72 89.5081C1324.93 103.556 1324.8 117.602 1324.81 131.649C1323.01 131.625 1321.22 131.593 1319.43 131.574C1317.56 129.567 1315.72 129.688 1313.91 131.654C1304.77 135.531 1295.65 139.448 1286.49 143.279C1278.99 146.418 1271.15 148.931 1266.32 156.275C1263.09 161.179 1261.27 169.961 1252.86 165.104C1244.23 160.12 1239.86 150.768 1244.4 141.73C1249.96 130.701 1259.78 122.032 1261.69 108.755C1262.22 105.191 1267.56 104.445 1271.05 105.649C1293.13 113.3 1301.63 99.3819 1308.43 82.5414Z" fill="#00BD6A"/>
<path d="M1216.02 143C1213.14 129.522 1206.71 130.526 1201.29 140.632C1197.1 148.469 1195.42 156.22 1184.65 159.125C1159.38 165.924 1159.61 166.615 1141.53 144.516C1139.3 141.803 1136.43 139.619 1133.86 137.195C1144.55 138.351 1155.76 128.84 1166.31 140.486C1170.1 144.677 1176.98 142.301 1182.29 136.481C1196.95 120.388 1197.43 120.813 1189.96 99.8685C1203.39 105.824 1215.04 102.494 1226.65 98.8935C1236.76 116.888 1231 131.063 1216.02 143Z" fill="#00BD6A"/>
<path d="M1313.91 131.658C1315.69 127.901 1317.53 127.933 1319.43 131.577C1317.59 131.601 1315.75 131.634 1313.91 131.658Z" fill="#00BD6A"/>
<path d="M1106.75 71.5522C1104.88 69.8347 1103.02 68.1142 1101.15 66.3907C1103.02 68.1087 1104.89 69.8292 1106.75 71.5522Z" fill="#00BD6A"/>
<path d="M66.0488 71.7283C69.4688 64.9535 77.0378 60.1078 85.2653 57.8338C90.3698 56.429 91.911 62.441 91.4378 67.0483C90.7395 73.799 75.5363 82.6925 69.0938 80.1328C66.5303 79.121 65.5748 76.4398 66.0488 71.7283Z" fill="#00BD6A"/>
<path d="M746.57 27.9769C739.538 36.3461 729.875 33.2554 721.229 33.3281C686.031 33.6326 650.841 33.4519 615.643 33.4399C622.763 25.2769 632.379 28.2544 641.045 28.1824C676.22 27.8531 711.395 28.0061 746.57 27.9769Z" fill="#00BD6A"/>
<path d="M513.653 229.683C514.705 228.519 515.61 226.616 516.857 226.352C518.957 225.902 519.89 227.492 519.056 229.523C518.712 230.342 518.12 231.033 517.362 231.497C515.355 232.637 514.071 231.947 513.653 229.683Z" fill="#00BD6A"/>
<path d="M353.83 197.109C355.018 194.725 358.718 191.934 359.23 193.176C361.808 199.422 355.716 195.697 353.83 197.118V197.109Z" fill="#00BD6A"/>
<path d="M873.375 79.4976C875.653 79.4976 877.5 77.4828 877.5 74.9976C877.5 72.5123 875.653 70.4976 873.375 70.4976C871.097 70.4976 869.25 72.5123 869.25 74.9976C869.25 77.4828 871.097 79.4976 873.375 79.4976Z" fill="#00BD6A"/>
</svg>
