<svg width="625" height="740" viewBox="0 0 625 740" fill="none" xmlns="http://www.w3.org/2000/svg">
<path d="M608.932 1.38623H16.4498C8.1307 1.38623 1.38672 8.13021 1.38672 16.4493V724.029C1.38672 732.348 8.1307 739.092 16.4498 739.092H608.932C617.251 739.092 623.995 732.348 623.995 724.029V16.4493C623.995 8.13021 617.251 1.38623 608.932 1.38623Z" stroke="#707070"/>
<path d="M331.992 327.329C331.993 323.988 331.112 320.706 329.438 317.815C327.764 314.924 325.356 312.527 322.457 310.865C319.559 309.204 316.273 308.337 312.932 308.354C309.592 308.37 306.314 309.268 303.432 310.958C300.55 312.648 298.166 315.068 296.52 317.976C294.874 320.883 294.025 324.173 294.059 327.514C294.093 330.854 295.008 334.127 296.713 337C298.418 339.873 300.851 342.245 303.767 343.875L304.161 331.292C304.162 330.068 304.403 328.855 304.872 327.723C305.341 326.592 306.029 325.564 306.895 324.698C307.761 323.832 308.79 323.145 309.922 322.677C311.053 322.208 312.266 321.967 313.491 321.968H314.021C314.986 321.968 315.941 322.158 316.833 322.527C317.725 322.896 318.535 323.438 319.217 324.12C319.899 324.802 320.44 325.613 320.81 326.504C321.179 327.396 321.369 328.351 321.369 329.316V344.343C324.553 342.784 327.237 340.363 329.115 337.356C330.993 334.348 331.989 330.875 331.992 327.329Z" fill="#AAD4C8"/>
<path d="M321.369 329.316C321.369 328.351 321.179 327.395 320.81 326.504C320.44 325.612 319.899 324.802 319.217 324.119C318.534 323.437 317.724 322.896 316.833 322.526C315.941 322.157 314.985 321.967 314.02 321.967H313.491C311.017 321.967 308.644 322.949 306.895 324.698C305.145 326.446 304.162 328.818 304.161 331.292L303.767 343.875L302.893 371.598C302.694 372.452 302.581 391.728 302.581 391.728C300.952 390.066 299.137 388.166 297.508 386.347C293.704 382.103 286.713 379.244 282.067 378.714C279.619 378.433 277.751 378.769 276.509 379.704C276.103 380.015 275.717 380.353 275.356 380.715C272.958 383.072 271.146 386.891 272.822 389.687C273.682 390.888 274.807 391.874 276.111 392.569C277.863 393.704 280.812 394.935 283.029 397.763C286.743 402.514 295.341 413.133 300.628 418.802C301.728 419.486 304.054 421.807 305.153 422.395C308.487 424.526 311.215 426.531 312.156 427.616C312.894 428.458 317.26 430.697 317.26 430.697C320.789 432.933 327.213 435.022 334.634 435.022C342.045 435.022 348.769 435.466 353.742 431.091H354.008L354.14 430.76C356.699 428.475 358.751 425.679 360.164 422.553C361.577 419.426 362.32 416.038 362.344 412.607V378.669C362.344 377.005 361.978 371.428 357.292 369.755C355.266 369.045 353.045 369.148 351.093 370.041L350.672 370.059L350.542 370.068C350.243 368.655 349.523 367.367 348.475 366.373C347.428 365.379 346.104 364.727 344.678 364.503C343.36 364.221 341.999 364.214 340.678 364.482C339.358 364.75 338.107 365.287 337.003 366.06C335.498 362.82 332.474 361.132 328.384 361.475C327.022 361.589 325.698 361.981 324.494 362.626C323.289 363.271 322.229 364.156 321.38 365.227V329.316H321.369Z" fill="#616E7D"/>
<path d="M355.347 358.821L359.112 363.011C359.283 363.202 359.493 363.354 359.73 363.454C359.966 363.554 360.221 363.599 360.477 363.588C360.734 363.577 360.984 363.509 361.211 363.388C361.437 363.268 361.634 363.099 361.787 362.893C368.224 353.928 372.062 343.36 372.88 332.354C373.698 321.348 371.463 310.329 366.422 300.511C361.38 290.693 353.728 282.457 344.306 276.708C334.885 270.96 324.06 267.922 313.023 267.93C310.735 267.93 308.447 268.057 306.173 268.31C295.786 269.498 285.889 273.38 277.465 279.57C269.04 285.761 262.38 294.046 258.144 303.604C253.908 313.162 252.244 323.662 253.316 334.061C254.389 344.46 258.16 354.399 264.257 362.892C264.41 363.098 264.607 363.268 264.834 363.389C265.06 363.509 265.311 363.578 265.568 363.59C265.824 363.601 266.08 363.556 266.317 363.456C266.554 363.357 266.765 363.206 266.936 363.014L270.696 358.829C270.953 358.54 271.106 358.173 271.128 357.787C271.15 357.401 271.041 357.018 270.818 356.702C265.571 349.024 262.519 340.06 261.99 330.775C261.461 321.491 263.475 312.238 267.816 304.014C272.157 295.789 278.659 288.905 286.623 284.103C294.586 279.301 303.709 276.762 313.009 276.761C322.308 276.76 331.432 279.297 339.396 284.098C347.361 288.898 353.865 295.781 358.207 304.005C362.549 312.228 364.565 321.481 364.038 330.765C363.511 340.05 360.46 349.014 355.215 356.694C354.994 357.011 354.887 357.394 354.911 357.78C354.935 358.166 355.089 358.533 355.347 358.821Z" fill="#616E7D"/>
<path d="M338.476 340.041L342.462 344.476C342.651 344.686 342.888 344.847 343.154 344.944C343.419 345.042 343.704 345.073 343.984 345.035C344.264 344.997 344.531 344.892 344.761 344.727C344.991 344.563 345.177 344.345 345.304 344.092C347.839 339.089 349.155 333.557 349.145 327.948C349.218 323.158 348.338 318.402 346.556 313.955C344.773 309.509 342.124 305.462 338.763 302.049C335.402 298.636 331.395 295.925 326.977 294.075C322.558 292.225 317.816 291.272 313.025 291.272C308.235 291.272 303.493 292.225 299.074 294.075C294.655 295.925 290.649 298.636 287.288 302.049C283.926 305.462 281.277 309.509 279.495 313.955C277.713 318.402 276.832 323.158 276.906 327.948C276.896 333.556 278.21 339.088 280.743 344.092C280.87 344.344 281.057 344.562 281.287 344.727C281.517 344.891 281.784 344.997 282.065 345.034C282.345 345.072 282.63 345.041 282.896 344.944C283.162 344.846 283.399 344.686 283.589 344.476L287.57 340.041C287.787 339.798 287.93 339.497 287.983 339.175C288.036 338.853 287.996 338.523 287.869 338.223C286.523 334.965 285.829 331.475 285.825 327.95C285.816 323.929 286.699 319.957 288.41 316.318C290.12 312.68 292.617 309.466 295.719 306.908C298.82 304.35 302.451 302.511 306.349 301.525C310.246 300.538 314.314 300.428 318.259 301.202C322.205 301.976 325.929 303.615 329.165 306.002C332.401 308.388 335.068 311.462 336.973 315.002C338.878 318.543 339.975 322.462 340.184 326.477C340.393 330.492 339.71 334.503 338.182 338.223C338.055 338.523 338.015 338.853 338.067 339.174C338.119 339.496 338.261 339.797 338.476 340.041Z" fill="#82BFAB"/>
<path d="M222.07 459.602C222.008 458.971 221.74 458.482 221.266 458.133C220.792 457.784 220.148 457.609 219.336 457.609C218.784 457.609 218.318 457.687 217.938 457.844C217.557 457.995 217.266 458.206 217.063 458.477C216.865 458.747 216.766 459.055 216.766 459.398C216.755 459.685 216.815 459.935 216.945 460.148C217.081 460.362 217.266 460.547 217.5 460.703C217.734 460.854 218.005 460.987 218.312 461.102C218.62 461.211 218.948 461.305 219.297 461.383L220.734 461.727C221.432 461.883 222.073 462.091 222.656 462.352C223.24 462.612 223.745 462.932 224.172 463.312C224.599 463.693 224.93 464.141 225.164 464.656C225.404 465.172 225.526 465.763 225.531 466.43C225.526 467.409 225.276 468.258 224.781 468.977C224.292 469.69 223.583 470.245 222.656 470.641C221.734 471.031 220.622 471.227 219.32 471.227C218.029 471.227 216.904 471.029 215.945 470.633C214.992 470.237 214.247 469.651 213.711 468.875C213.18 468.094 212.901 467.128 212.875 465.977H216.148C216.185 466.513 216.339 466.961 216.609 467.32C216.885 467.674 217.253 467.943 217.711 468.125C218.174 468.302 218.698 468.391 219.281 468.391C219.854 468.391 220.352 468.307 220.773 468.141C221.201 467.974 221.531 467.742 221.766 467.445C222 467.148 222.117 466.807 222.117 466.422C222.117 466.062 222.01 465.76 221.797 465.516C221.589 465.271 221.281 465.062 220.875 464.891C220.474 464.719 219.982 464.562 219.398 464.422L217.656 463.984C216.307 463.656 215.242 463.143 214.461 462.445C213.68 461.747 213.292 460.807 213.297 459.625C213.292 458.656 213.549 457.81 214.07 457.086C214.596 456.362 215.318 455.797 216.234 455.391C217.151 454.984 218.193 454.781 219.359 454.781C220.547 454.781 221.583 454.984 222.469 455.391C223.359 455.797 224.052 456.362 224.547 457.086C225.042 457.81 225.297 458.648 225.312 459.602H222.07ZM233.213 471.234C231.979 471.234 230.916 470.984 230.025 470.484C229.14 469.979 228.458 469.266 227.979 468.344C227.499 467.417 227.26 466.32 227.26 465.055C227.26 463.82 227.499 462.737 227.979 461.805C228.458 460.872 229.132 460.146 230.002 459.625C230.877 459.104 231.903 458.844 233.08 458.844C233.872 458.844 234.609 458.971 235.291 459.227C235.979 459.477 236.577 459.854 237.088 460.359C237.604 460.865 238.005 461.5 238.291 462.266C238.577 463.026 238.721 463.917 238.721 464.937V465.852H228.588V463.789H235.588C235.588 463.31 235.484 462.885 235.275 462.516C235.067 462.146 234.778 461.857 234.408 461.648C234.044 461.435 233.619 461.328 233.135 461.328C232.63 461.328 232.182 461.445 231.791 461.68C231.406 461.909 231.104 462.219 230.885 462.609C230.666 462.995 230.554 463.424 230.549 463.898V465.859C230.549 466.453 230.658 466.966 230.877 467.398C231.101 467.831 231.416 468.164 231.822 468.398C232.229 468.633 232.71 468.75 233.268 468.75C233.637 468.75 233.976 468.698 234.283 468.594C234.59 468.49 234.854 468.333 235.072 468.125C235.291 467.917 235.458 467.661 235.572 467.359L238.65 467.562C238.494 468.302 238.174 468.948 237.689 469.5C237.21 470.047 236.59 470.474 235.83 470.781C235.075 471.083 234.202 471.234 233.213 471.234ZM244.221 455V471H240.893V455H244.221ZM252.355 471.234C251.121 471.234 250.059 470.984 249.168 470.484C248.283 469.979 247.6 469.266 247.121 468.344C246.642 467.417 246.402 466.32 246.402 465.055C246.402 463.82 246.642 462.737 247.121 461.805C247.6 460.872 248.275 460.146 249.145 459.625C250.02 459.104 251.046 458.844 252.223 458.844C253.014 458.844 253.751 458.971 254.434 459.227C255.121 459.477 255.72 459.854 256.23 460.359C256.746 460.865 257.147 461.5 257.434 462.266C257.72 463.026 257.863 463.917 257.863 464.937V465.852H247.73V463.789H254.73C254.73 463.31 254.626 462.885 254.418 462.516C254.21 462.146 253.921 461.857 253.551 461.648C253.186 461.435 252.762 461.328 252.277 461.328C251.772 461.328 251.324 461.445 250.934 461.68C250.548 461.909 250.246 462.219 250.027 462.609C249.809 462.995 249.697 463.424 249.691 463.898V465.859C249.691 466.453 249.801 466.966 250.02 467.398C250.243 467.831 250.559 468.164 250.965 468.398C251.371 468.633 251.853 468.75 252.41 468.75C252.78 468.75 253.118 468.698 253.426 468.594C253.733 468.49 253.996 468.333 254.215 468.125C254.434 467.917 254.6 467.661 254.715 467.359L257.793 467.562C257.637 468.302 257.316 468.948 256.832 469.5C256.353 470.047 255.733 470.474 254.973 470.781C254.217 471.083 253.345 471.234 252.355 471.234ZM265.457 471.234C264.228 471.234 263.171 470.974 262.285 470.453C261.405 469.927 260.728 469.198 260.254 468.266C259.785 467.333 259.551 466.26 259.551 465.047C259.551 463.818 259.788 462.74 260.262 461.812C260.741 460.88 261.421 460.154 262.301 459.633C263.181 459.107 264.228 458.844 265.441 458.844C266.488 458.844 267.405 459.034 268.191 459.414C268.978 459.794 269.6 460.328 270.059 461.016C270.517 461.703 270.77 462.51 270.816 463.438H267.676C267.587 462.839 267.353 462.357 266.973 461.992C266.598 461.622 266.105 461.437 265.496 461.437C264.98 461.437 264.53 461.578 264.145 461.859C263.764 462.135 263.467 462.539 263.254 463.07C263.04 463.602 262.934 464.245 262.934 465C262.934 465.766 263.038 466.417 263.246 466.953C263.46 467.49 263.759 467.898 264.145 468.18C264.53 468.461 264.98 468.602 265.496 468.602C265.876 468.602 266.217 468.523 266.52 468.367C266.827 468.211 267.079 467.984 267.277 467.687C267.48 467.385 267.613 467.023 267.676 466.602H270.816C270.764 467.518 270.514 468.326 270.066 469.023C269.624 469.716 269.012 470.258 268.23 470.648C267.449 471.039 266.525 471.234 265.457 471.234ZM279.33 459V461.5H272.104V459H279.33ZM273.744 456.125H277.072V467.312C277.072 467.62 277.119 467.859 277.213 468.031C277.307 468.198 277.437 468.315 277.604 468.383C277.775 468.451 277.973 468.484 278.197 468.484C278.354 468.484 278.51 468.471 278.666 468.445C278.822 468.414 278.942 468.391 279.025 468.375L279.549 470.852C279.382 470.904 279.148 470.964 278.846 471.031C278.544 471.104 278.176 471.148 277.744 471.164C276.942 471.195 276.239 471.089 275.635 470.844C275.036 470.599 274.57 470.219 274.236 469.703C273.903 469.187 273.739 468.536 273.744 467.75V456.125ZM290.012 471.227C289.246 471.227 288.564 471.094 287.965 470.828C287.366 470.557 286.892 470.159 286.543 469.633C286.199 469.102 286.027 468.44 286.027 467.648C286.027 466.982 286.15 466.422 286.395 465.969C286.639 465.516 286.973 465.151 287.395 464.875C287.816 464.599 288.296 464.391 288.832 464.25C289.374 464.109 289.941 464.01 290.535 463.953C291.233 463.88 291.796 463.812 292.223 463.75C292.65 463.682 292.96 463.583 293.152 463.453C293.345 463.323 293.441 463.13 293.441 462.875V462.828C293.441 462.333 293.285 461.951 292.973 461.68C292.665 461.409 292.228 461.273 291.66 461.273C291.061 461.273 290.585 461.406 290.23 461.672C289.876 461.932 289.642 462.26 289.527 462.656L286.449 462.406C286.605 461.677 286.913 461.047 287.371 460.516C287.829 459.979 288.421 459.568 289.145 459.281C289.874 458.99 290.717 458.844 291.676 458.844C292.342 458.844 292.98 458.922 293.59 459.078C294.204 459.234 294.749 459.477 295.223 459.805C295.702 460.133 296.079 460.555 296.355 461.07C296.632 461.581 296.77 462.193 296.77 462.906V471H293.613V469.336H293.52C293.327 469.711 293.069 470.042 292.746 470.328C292.423 470.609 292.035 470.831 291.582 470.992C291.129 471.148 290.605 471.227 290.012 471.227ZM290.965 468.93C291.454 468.93 291.887 468.833 292.262 468.641C292.637 468.443 292.931 468.177 293.145 467.844C293.358 467.51 293.465 467.133 293.465 466.711V465.438C293.361 465.505 293.217 465.568 293.035 465.625C292.858 465.677 292.658 465.727 292.434 465.773C292.21 465.815 291.986 465.854 291.762 465.891C291.538 465.922 291.335 465.951 291.152 465.977C290.762 466.034 290.421 466.125 290.129 466.25C289.837 466.375 289.611 466.544 289.449 466.758C289.288 466.966 289.207 467.227 289.207 467.539C289.207 467.992 289.371 468.339 289.699 468.578C290.033 468.812 290.454 468.93 290.965 468.93ZM307.771 455V471H304.443V455H307.771ZM315.859 471.234C314.646 471.234 313.596 470.977 312.711 470.461C311.831 469.94 311.151 469.216 310.672 468.289C310.193 467.357 309.953 466.276 309.953 465.047C309.953 463.807 310.193 462.724 310.672 461.797C311.151 460.865 311.831 460.141 312.711 459.625C313.596 459.104 314.646 458.844 315.859 458.844C317.073 458.844 318.12 459.104 319 459.625C319.885 460.141 320.568 460.865 321.047 461.797C321.526 462.724 321.766 463.807 321.766 465.047C321.766 466.276 321.526 467.357 321.047 468.289C320.568 469.216 319.885 469.94 319 470.461C318.12 470.977 317.073 471.234 315.859 471.234ZM315.875 468.656C316.427 468.656 316.888 468.5 317.258 468.188C317.628 467.87 317.906 467.437 318.094 466.891C318.286 466.344 318.383 465.721 318.383 465.023C318.383 464.326 318.286 463.703 318.094 463.156C317.906 462.609 317.628 462.177 317.258 461.859C316.888 461.542 316.427 461.383 315.875 461.383C315.318 461.383 314.849 461.542 314.469 461.859C314.094 462.177 313.81 462.609 313.617 463.156C313.43 463.703 313.336 464.326 313.336 465.023C313.336 465.721 313.43 466.344 313.617 466.891C313.81 467.437 314.094 467.87 314.469 468.188C314.849 468.5 315.318 468.656 315.875 468.656ZM329.352 471.234C328.122 471.234 327.065 470.974 326.18 470.453C325.299 469.927 324.622 469.198 324.148 468.266C323.68 467.333 323.445 466.26 323.445 465.047C323.445 463.818 323.682 462.74 324.156 461.812C324.635 460.88 325.315 460.154 326.195 459.633C327.076 459.107 328.122 458.844 329.336 458.844C330.383 458.844 331.299 459.034 332.086 459.414C332.872 459.794 333.495 460.328 333.953 461.016C334.411 461.703 334.664 462.51 334.711 463.438H331.57C331.482 462.839 331.247 462.357 330.867 461.992C330.492 461.622 330 461.437 329.391 461.437C328.875 461.437 328.424 461.578 328.039 461.859C327.659 462.135 327.362 462.539 327.148 463.07C326.935 463.602 326.828 464.245 326.828 465C326.828 465.766 326.932 466.417 327.141 466.953C327.354 467.49 327.654 467.898 328.039 468.18C328.424 468.461 328.875 468.602 329.391 468.602C329.771 468.602 330.112 468.523 330.414 468.367C330.721 468.211 330.974 467.984 331.172 467.687C331.375 467.385 331.508 467.023 331.57 466.602H334.711C334.659 467.518 334.409 468.326 333.961 469.023C333.518 469.716 332.906 470.258 332.125 470.648C331.344 471.039 330.419 471.234 329.352 471.234ZM340.264 471.227C339.498 471.227 338.816 471.094 338.217 470.828C337.618 470.557 337.144 470.159 336.795 469.633C336.451 469.102 336.279 468.44 336.279 467.648C336.279 466.982 336.402 466.422 336.646 465.969C336.891 465.516 337.225 465.151 337.646 464.875C338.068 464.599 338.548 464.391 339.084 464.25C339.626 464.109 340.193 464.01 340.787 463.953C341.485 463.88 342.048 463.812 342.475 463.75C342.902 463.682 343.212 463.583 343.404 463.453C343.597 463.323 343.693 463.13 343.693 462.875V462.828C343.693 462.333 343.537 461.951 343.225 461.68C342.917 461.409 342.48 461.273 341.912 461.273C341.313 461.273 340.837 461.406 340.482 461.672C340.128 461.932 339.894 462.26 339.779 462.656L336.701 462.406C336.857 461.677 337.165 461.047 337.623 460.516C338.081 459.979 338.673 459.568 339.396 459.281C340.126 458.99 340.969 458.844 341.928 458.844C342.594 458.844 343.232 458.922 343.842 459.078C344.456 459.234 345.001 459.477 345.475 459.805C345.954 460.133 346.331 460.555 346.607 461.07C346.883 461.581 347.021 462.193 347.021 462.906V471H343.865V469.336H343.771C343.579 469.711 343.321 470.042 342.998 470.328C342.675 470.609 342.287 470.831 341.834 470.992C341.381 471.148 340.857 471.227 340.264 471.227ZM341.217 468.93C341.706 468.93 342.139 468.833 342.514 468.641C342.889 468.443 343.183 468.177 343.396 467.844C343.61 467.51 343.717 467.133 343.717 466.711V465.438C343.613 465.505 343.469 465.568 343.287 465.625C343.11 465.677 342.91 465.727 342.686 465.773C342.462 465.815 342.238 465.854 342.014 465.891C341.79 465.922 341.587 465.951 341.404 465.977C341.014 466.034 340.673 466.125 340.381 466.25C340.089 466.375 339.863 466.544 339.701 466.758C339.54 466.966 339.459 467.227 339.459 467.539C339.459 467.992 339.623 468.339 339.951 468.578C340.285 468.812 340.706 468.93 341.217 468.93ZM355.986 459V461.5H348.76V459H355.986ZM350.4 456.125H353.729V467.312C353.729 467.62 353.775 467.859 353.869 468.031C353.963 468.198 354.093 468.315 354.26 468.383C354.432 468.451 354.63 468.484 354.854 468.484C355.01 468.484 355.166 468.471 355.322 468.445C355.479 468.414 355.598 468.391 355.682 468.375L356.205 470.852C356.038 470.904 355.804 470.964 355.502 471.031C355.2 471.104 354.833 471.148 354.4 471.164C353.598 471.195 352.895 471.089 352.291 470.844C351.692 470.599 351.226 470.219 350.893 469.703C350.559 469.187 350.395 468.536 350.4 467.75V456.125ZM358.154 471V459H361.482V471H358.154ZM359.826 457.453C359.331 457.453 358.907 457.289 358.553 456.961C358.204 456.628 358.029 456.229 358.029 455.766C358.029 455.307 358.204 454.914 358.553 454.586C358.907 454.253 359.331 454.086 359.826 454.086C360.321 454.086 360.743 454.253 361.092 454.586C361.446 454.914 361.623 455.307 361.623 455.766C361.623 456.229 361.446 456.628 361.092 456.961C360.743 457.289 360.321 457.453 359.826 457.453ZM369.57 471.234C368.357 471.234 367.307 470.977 366.422 470.461C365.542 469.94 364.862 469.216 364.383 468.289C363.904 467.357 363.664 466.276 363.664 465.047C363.664 463.807 363.904 462.724 364.383 461.797C364.862 460.865 365.542 460.141 366.422 459.625C367.307 459.104 368.357 458.844 369.57 458.844C370.784 458.844 371.831 459.104 372.711 459.625C373.596 460.141 374.279 460.865 374.758 461.797C375.237 462.724 375.477 463.807 375.477 465.047C375.477 466.276 375.237 467.357 374.758 468.289C374.279 469.216 373.596 469.94 372.711 470.461C371.831 470.977 370.784 471.234 369.57 471.234ZM369.586 468.656C370.138 468.656 370.599 468.5 370.969 468.188C371.339 467.87 371.617 467.437 371.805 466.891C371.997 466.344 372.094 465.721 372.094 465.023C372.094 464.326 371.997 463.703 371.805 463.156C371.617 462.609 371.339 462.177 370.969 461.859C370.599 461.542 370.138 461.383 369.586 461.383C369.029 461.383 368.56 461.542 368.18 461.859C367.805 462.177 367.521 462.609 367.328 463.156C367.141 463.703 367.047 464.326 367.047 465.023C367.047 465.721 367.141 466.344 367.328 466.891C367.521 467.437 367.805 467.87 368.18 468.188C368.56 468.5 369.029 468.656 369.586 468.656ZM380.969 464.063V471H377.641V459H380.813V461.117H380.953C381.219 460.419 381.664 459.867 382.289 459.461C382.914 459.049 383.672 458.844 384.562 458.844C385.396 458.844 386.122 459.026 386.742 459.391C387.362 459.755 387.844 460.276 388.188 460.953C388.531 461.625 388.703 462.427 388.703 463.359V471H385.375V463.953C385.38 463.219 385.193 462.646 384.813 462.234C384.432 461.818 383.909 461.609 383.242 461.609C382.794 461.609 382.398 461.706 382.055 461.898C381.716 462.091 381.451 462.372 381.258 462.742C381.07 463.107 380.974 463.547 380.969 464.063Z" fill="black"/>
</svg>
